SplineFontDB: 3.0
FontName: Neuton-Italic
FullName: Neuton Italic
FamilyName: Neuton
Weight: Italic
Copyright: Copyright (c) 2010, 2011 Brian M Zick (http://21326.info/), \nwith Reserved Font Name 'Neuton'.\n\nThis Font Software is licensed under the SIL Open Font License, Version 1.1.\nThis license is available with a FAQ at: http://scripts.sil.org/OFL\n   WITHOUT WARRANTIES OR CONDITIONS OF ANY KIND, either express or implied.\n   See the License for the specific language governing permissions and\n   limitations under the License.
UComments: "2011-7-27: Created." 
Version: 1.46
ItalicAngle: 0
UnderlinePosition: -361
UnderlineWidth: 0
Ascent: 1638
Descent: 410
LayerCount: 3
Layer: 0 0 "Back"  1
Layer: 1 0 "Fore"  0
Layer: 2 0 "Compare"  0
NeedsXUIDChange: 1
XUID: [1021 467 2011608612 16041572]
FSType: 1
OS2Version: 1
OS2_WeightWidthSlopeOnly: 0
OS2_UseTypoMetrics: 0
CreationTime: 1311747327
ModificationTime: 1371041096
PfmFamily: 17
TTFWeight: 500
TTFWidth: 5
LineGap: 0
VLineGap: 0
OS2TypoAscent: 2106
OS2TypoAOffset: 0
OS2TypoDescent: -485
OS2TypoDOffset: 0
OS2TypoLinegap: 0
OS2WinAscent: 2106
OS2WinAOffset: 0
OS2WinDescent: 485
OS2WinDOffset: 0
HheadAscent: 2106
HheadAOffset: 0
HheadDescent: -485
HheadDOffset: 0
OS2SubXSize: 1095
OS2SubYSize: 1179
OS2SubXOff: 0
OS2SubYOff: 235
OS2SupXSize: 1095
OS2SupYSize: 1179
OS2SupXOff: 0
OS2SupYOff: 809
OS2StrikeYSize: 84
OS2StrikeYPos: 436
OS2Vendor: 'PfEd'
Lookup: 1 0 0 "'onum' Oldstyle Figures lookup 1"  {"'onum' Oldstyle Figures lookup 1-1" ("osf" ) } ['onum' ('DFLT' <'dflt' > 'hebr' <'dflt' > 'latn' <'dflt' > ) ]
Lookup: 3 0 0 "Neuton-Regular-'salt' Stylistic Alternates"  {"Neuton-Regular-Alternate Substitution in Latin lookup 0-1"  } ['salt' ('DFLT' <'dflt' > 'latn' <'dflt' > ) ]
MarkAttachClasses: 1
DEI: 91125
LangName: 1033 
Encoding: UnicodeBmp
Compacted: 1
UnicodeInterp: none
NameList: Adobe Glyph List
DisplaySize: -72
AntiAlias: 1
FitToEm: 1
WidthSeparation: 150
WinInfo: 84 7 5
BeginPrivate: 0
EndPrivate
Grid

StartChar: exclam
Encoding: 33 33 0
Width: 534
VWidth: 0
Flags: HMW
LayerCount: 3
Fore
SplineSet
64 81 m 0
 64 162 136 210 207 210 c 0
 268 210 315 156 315 98 c 0
 315 16 240 -36 168 -36 c 0
 105 -36 64 21 64 81 c 0
190 376 m 1
 221 669 247 1072 274 1245 c 0
 280 1282 350 1292 393 1292 c 0
 418 1292 471 1285 471 1259 c 0
 471 1212 343 591 274 357 c 1
 190 376 l 1
EndSplineSet
Colour: ffffff
EndChar

StartChar: quotedbl
Encoding: 34 34 1
Width: 563
VWidth: 0
Flags: HMW
LayerCount: 3
Fore
SplineSet
91 892 m 1
 103 1303 l 1
 283 1286 l 1
 187 903 l 1
 91 892 l 1
300 892 m 1
 311 1303 l 1
 491 1286 l 1
 395 903 l 1
 300 892 l 1
EndSplineSet
Colour: ffffff
EndChar

StartChar: numbersign
Encoding: 35 35 2
Width: 1139
VWidth: 0
Flags: HMW
LayerCount: 3
Fore
SplineSet
62 326 m 1
 95 451 l 9
 1001 451 l 17
 970 326 l 1
 62 326 l 1
133 711 m 17
 167 836 l 9
 1076 836 l 17
 1045 711 l 9
 133 711 l 17
266 -26 m 9
 443 1149 l 17
 559 1159 l 9
 383 -19 l 17
 266 -26 l 9
571 -26 m 9
 747 1149 l 17
 865 1158 l 9
 688 -19 l 17
 571 -26 l 9
EndSplineSet
Colour: ffffff
EndChar

StartChar: dollar
Encoding: 36 36 3
Width: 978
VWidth: 0
Flags: HMW
LayerCount: 3
Fore
SplineSet
59 122 m 1
 116 390 l 1
 215 375 l 1
 221 187 l 1
 249 123 314 78 411 78 c 0
 527 78 685 149 685 312 c 0
 685 528 206 556 206 870 c 0
 206 1128 434 1270 652 1270 c 0
 740 1270 852 1247 918 1169 c 1
 916 1161 852 887 852 887 c 1
 755 898 l 1
 758 1090 l 1
 751 1118 688 1184 604 1184 c 0
 490 1184 391 1113 391 968 c 0
 391 725 882 714 882 400 c 0
 882 147 623 -25 372 -25 c 0
 228 -25 100 41 59 122 c 1
305 -179 m 1
 346 9 l 1
 391 54 l 1
 482 631 l 1
 498 700 l 1
 578 1207 l 1
 548 1242 l 1
 557 1394 l 1
 724 1409 l 1
 681 1242 l 1
 639 1202 l 1
 554 666 l 1
 544 582 l 1
 461 54 l 1
 496 20 l 1
 480 -164 l 1
 305 -179 l 1
EndSplineSet
Colour: ffffff
EndChar

StartChar: percent
Encoding: 37 37 4
Width: 1281
VWidth: 0
Flags: HMW
LayerCount: 3
Fore
SplineSet
62 -10 m 1
 564 588 l 1
 1053 1210 l 1
 1219 1207 l 1
 1212 1178 l 1
 718 591 l 1
 249 -32 l 1
 62 -10 l 1
107 840 m 0
 107 1043 296 1211 433 1211 c 0
 451 1211 456 1210 462 1208 c 1
 461 1142 l 17
 447 1148 437 1154 418 1154 c 0
 320 1154 268 934 268 797 c 0
 268 716 287 649 340 649 c 0
 466 649 502 945 502 1094 c 0
 502 1136 499 1171 494 1198 c 9
 1053 1210 l 25
 1049 1121 l 25
 612 1137 l 17
 643 1099 652 1015 652 953 c 0
 652 748 460 583 330 583 c 0
 216 583 107 682 107 840 c 0
627 221 m 0
 627 422 816 590 951 590 c 0
 1077 590 1170 483 1170 334 c 0
 1170 131 987 -36 855 -36 c 0
 741 -36 627 63 627 221 c 0
789 187 m 0
 789 103 811 32 866 32 c 0
 969 32 1015 243 1015 386 c 0
 1015 467 996 534 942 534 c 0
 841 534 789 324 789 187 c 0
EndSplineSet
Colour: ffffff
EndChar

StartChar: ampersand
Encoding: 38 38 5
Width: 1494
VWidth: 0
Flags: HMW
LayerCount: 3
Fore
SplineSet
65 262 m 0
 65 493 277 628 420 702 c 1
 375 746 315 833 315 935 c 0
 315 1112 502 1272 681 1272 c 0
 827 1272 963 1220 963 1061 c 0
 963 888 806 791 673 717 c 1
 671 705 l 1
 908 423 l 1
 1122 720 l 1
 961 761 l 1
 982 837 l 1
 1431 837 l 1
 1410 761 l 1
 1233 723 l 1
 967 353 l 1
 1018 287 1165 105 1251 79 c 2
 1283 69 l 1
 1256 0 l 1
 1211 -15 1170 -20 1132 -20 c 0
 1021 -20 923 92 827 218 c 1
 746 126 604 -20 379 -20 c 0
 180 -20 65 106 65 262 c 0
266 338 m 0
 266 218 326 106 458 106 c 0
 608 106 740 244 766 282 c 1
 473 629 l 1
 458 631 l 1
 369 576 266 485 266 338 c 0
485 1002 m 0
 485 913 564 820 614 773 c 1
 726 841 788 902 788 1029 c 0
 788 1117 740 1187 648 1187 c 0
 554 1187 485 1091 485 1002 c 0
EndSplineSet
Colour: ffffff
EndChar

StartChar: quotesingle
Encoding: 39 39 6
Width: 355
VWidth: 0
Flags: HMW
LayerCount: 3
Fore
SplineSet
91 892 m 1
 103 1303 l 1
 283 1286 l 1
 187 903 l 1
 91 892 l 1
EndSplineSet
Colour: ffffff
EndChar

StartChar: parenleft
Encoding: 40 40 7
Width: 651
VWidth: 0
Flags: HMW
LayerCount: 3
Fore
SplineSet
70 261 m 0
 70 831 468 1192 551 1255 c 1
 590 1189 l 1
 481 1072 249 713 249 249 c 0
 249 -43 340 -258 367 -317 c 1
 288 -375 l 1
 251 -334 70 -118 70 261 c 0
EndSplineSet
Colour: ffffff
EndChar

StartChar: parenright
Encoding: 41 41 8
Width: 674
VWidth: 0
Flags: HMW
LayerCount: 3
Fore
SplineSet
60 -317 m 1
 120 -375 l 1
 192 -316 600 12 600 629 c 0
 600 1004 421 1207 372 1255 c 1
 313 1189 l 1
 364 1105 429 943 429 702 c 0
 429 132 134 -220 60 -317 c 1
EndSplineSet
Colour: ffffff
EndChar

StartChar: asterisk
Encoding: 42 42 9
Width: 847
VWidth: 0
Flags: HMW
LayerCount: 3
Fore
SplineSet
68 964 m 1
 123 1091 l 1
 390 977 l 1
 353 1292 l 1
 489 1279 l 1
 463 988 l 1
 752 1119 l 1
 781 989 l 1
 496 921 l 1
 715 692 l 1
 597 623 l 1
 444 870 l 1
 289 593 l 1
 187 685 l 1
 380 904 l 1
 68 964 l 1
EndSplineSet
Colour: ffffff
EndChar

StartChar: plus
Encoding: 43 43 10
Width: 693
VWidth: 0
Flags: HMW
LayerCount: 3
Fore
SplineSet
70 409 m 1
 82 510 l 1
 291 510 l 1
 291 741 l 1
 400 729 l 1
 401 510 l 1
 621 510 l 1
 609 409 l 1
 401 409 l 1
 403 174 l 1
 291 185 l 1
 291 409 l 1
 70 409 l 1
EndSplineSet
Colour: ffffff
EndChar

StartChar: comma
Encoding: 44 44 11
Width: 523
VWidth: 0
Flags: HMW
LayerCount: 3
Fore
SplineSet
71 -244 m 5
 206 -209 281 -125 281 -61 c 4
 281 4 230 50 150 30 c 5
 124 139 188 218 287 218 c 4
 356 218 439 182 439 30 c 4
 439 -66 356 -245 82 -314 c 5
 71 -244 l 5
EndSplineSet
Colour: ffffff
EndChar

StartChar: hyphen
Encoding: 45 45 12
Width: 598
VWidth: 0
Flags: HMW
LayerCount: 3
Fore
SplineSet
79 398 m 1
 107 499 l 1
 517 517 l 1
 490 416 l 1
 79 398 l 1
EndSplineSet
Colour: ffffff
EndChar

StartChar: period
Encoding: 46 46 13
Width: 404
VWidth: 0
Flags: HMW
LayerCount: 3
Fore
SplineSet
77 74 m 0
 77 153 142 215 220 215 c 3
 283 215 320 161 320 107 c 0
 320 23 259 -33 183 -33 c 19
 130 -33 77 23 77 74 c 0
EndSplineSet
Colour: ffffff
EndChar

StartChar: colon
Encoding: 58 58 14
Width: 468
VWidth: 0
Flags: HMW
LayerCount: 3
Fore
SplineSet
70 100 m 4
 70 172 137 225 202 225 c 4
 257 225 298 185 298 134 c 4
 298 59 229 2 165 2 c 4
 108 2 70 45 70 100 c 4
171 727 m 4
 171 801 236 852 301 852 c 4
 356 852 397 814 397 762 c 4
 397 687 329 629 265 629 c 4
 208 629 171 672 171 727 c 4
EndSplineSet
Colour: ffffff
EndChar

StartChar: semicolon
Encoding: 59 59 15
Width: 528
VWidth: 0
Flags: HMW
LayerCount: 3
Fore
SplineSet
65 -216 m 1
 187 -184 254 -110 254 -52 c 0
 254 7 208 48 136 30 c 1
 113 129 170 199 259 199 c 0
 321 199 396 167 396 30 c 0
 396 -56 322 -217 75 -279 c 1
 65 -216 l 1
231 727 m 0
 231 801 297 852 362 852 c 0
 417 852 457 814 457 762 c 0
 457 687 390 629 326 629 c 0
 269 629 231 672 231 727 c 0
EndSplineSet
Colour: ffffff
EndChar

StartChar: slash
Encoding: 47 47 16
Width: 717
VWidth: 0
Flags: HMW
LayerCount: 3
Fore
SplineSet
61 -363 m 1
 523 1235 l 1
 655 1244 l 1
 189 -355 l 1
 61 -363 l 1
EndSplineSet
Colour: ffffff
EndChar

StartChar: equal
Encoding: 61 61 17
Width: 832
VWidth: 0
Flags: HMW
LayerCount: 3
Fore
SplineSet
80 319 m 5
 90 424 l 5
 745 424 l 1
 734 319 l 1
 80 319 l 5
83 559 m 5
 93 663 l 5
 749 663 l 1
 737 559 l 1
 83 559 l 5
EndSplineSet
Colour: ffffff
EndChar

StartChar: greater
Encoding: 62 62 18
Width: 829
VWidth: 0
Flags: HMW
LayerCount: 3
Fore
SplineSet
63 -13 m 1
 523 434 l 1
 83 900 l 1
 139 973 l 1
 759 472 l 1
 760 415 l 1
 126 -83 l 1
 63 -13 l 1
EndSplineSet
Colour: ffffff
EndChar

StartChar: question
Encoding: 63 63 19
Width: 688
VWidth: 0
Flags: HMW
LayerCount: 3
Fore
SplineSet
122 1137 m 0
 122 1205 180 1288 341 1288 c 0
 480 1288 623 1148 623 937 c 0
 623 561 269 744 269 454 c 0
 269 432 271 410 275 383 c 1
 198 367 l 1
 181 401 152 476 152 548 c 0
 152 828 520 715 520 960 c 0
 520 1043 438 1113 383 1113 c 0
 307 1113 230 1088 180 1042 c 1
 152 1054 122 1090 122 1137 c 0
64 70 m 0
 64 153 136 210 208 210 c 0
 270 210 316 167 316 108 c 0
 316 25 240 -36 170 -36 c 0
 108 -36 64 10 64 70 c 0
EndSplineSet
Colour: ffffff
EndChar

StartChar: at
Encoding: 64 64 20
Width: 1402
VWidth: 0
Flags: HMW
LayerCount: 3
Fore
SplineSet
69 310 m 0
 69 710 395 1044 826 1044 c 0
 1107 1044 1331 872 1331 598 c 0
 1331 327 1111 69 837 69 c 11
 779 69 736 109 746 187 c 1
 738 187 l 1
 697 128 621 59 545 59 c 0
 439 59 373 137 373 307 c 0
 373 594 620 789 788 789 c 0
 834.623 789 909 786 955 771 c 1
 973 751 l 1
 918 385 l 2
 900 266 883 168 923 168 c 3
 1075 168 1196 355 1196 558 c 0
 1196 822 1022 955 786 955 c 0
 457 955 225 654 225 340 c 0
 225 44 398 -135 725 -135 c 0
 878.082 -135 1026.56 -56.9613 1082 -20 c 1
 1115 -83 l 1
 1022.35 -134.474 901.17 -228 685 -228 c 0
 379 -228 69 -93 69 310 c 0
532 350 m 0
 532 200 558 180 609 180 c 0
 662 180 714 214 750 254 c 1
 819 692 l 1
 799 697 763 704 732 704 c 0
 616 704 532 502 532 350 c 0
EndSplineSet
Colour: ffffff
EndChar

StartChar: A
Encoding: 65 65 21
Width: 1376
VWidth: 1691
Flags: HMW
LayerCount: 3
Fore
SplineSet
42 0 m 1
 63 74 l 1
 222 129 l 1
 825 1237 l 1
 982 1268 l 1
 1201 124 l 1
 1330 81 l 1
 1308 0 l 1
 793 0 l 1
 816 74 l 1
 998 129 l 1
 935 433 l 1
 516 433 l 1
 357 124 l 1
 535 81 l 1
 511 0 l 1
 42 0 l 1
568 533 m 1
 920 533 l 1
 834 1034 l 1
 568 533 l 1
EndSplineSet
Colour: ffffff
EndChar

StartChar: B
Encoding: 66 66 22
Width: 1214
VWidth: 1691
Flags: HMW
LayerCount: 3
Fore
SplineSet
40 0 m 1
 63 74 l 1
 240 121 l 1
 412 1105 l 1
 247 1135 l 1
 270 1211 l 1
 419 1232 593 1257 770 1257 c 0
 1049 1257 1160 1127 1160 993 c 0
 1160 889 1097 748 899 680 c 1
 897 672 l 1
 1079 662 1166 532 1166 411 c 0
 1166 219 967 0 524 0 c 2
 40 0 l 1
427 96 m 1
 630 96 l 2
 860 96 965 240 965 380 c 0
 965 491 893 604 739 604 c 2
 516 604 l 1
 427 96 l 1
532 689 m 1
 740 689 l 2
 875 689 962 787 962 946 c 0
 962 1053 902 1171 696 1171 c 0
 671 1171 643 1169 615 1164 c 1
 532 689 l 1
EndSplineSet
Colour: ffffff
EndChar

StartChar: C
Encoding: 67 67 23
Width: 1184
VWidth: 1691
Flags: HMW
LayerCount: 3
Fore
SplineSet
48 535 m 0
 48 858 299 1270 809 1270 c 0
 941 1270 1059 1222 1143 1149 c 1
 1060 817 l 1
 976 831 l 1
 968 1050 l 1
 932 1109 862 1174 733 1174 c 0
 493 1174 271 950 271 575 c 0
 271 268 446 106 657 106 c 0
 773 106 889 128 1016 240 c 1
 1059 185 l 1
 907 15 716 -25 553 -25 c 0
 279 -25 48 197 48 535 c 0
EndSplineSet
Colour: ffffff
EndChar

StartChar: D
Encoding: 68 68 24
Width: 1458
VWidth: 1691
Flags: HMW
LayerCount: 3
Fore
SplineSet
40 0 m 5
 65 74 l 5
 247 129 l 5
 399 1103 l 5
 232 1133 l 5
 253 1209 l 5
 454 1240 628 1258 773 1258 c 4
 1254 1258 1413 1018 1413 758 c 4
 1413 375 1063 0 521 0 c 6
 40 0 l 5
433 104 m 5
 580 104 l 6
 953 104 1188 359 1188 674 c 4
 1188 946 1039 1156 719 1156 c 4
 678 1156 639 1154 598 1149 c 5
 433 104 l 5
EndSplineSet
Colour: ffffff
EndChar

StartChar: E
Encoding: 69 69 25
Width: 1258
VWidth: 1691
Flags: HMW
LayerCount: 3
Fore
SplineSet
41 0 m 5
 61 74 l 5
 236 121 l 5
 395 1126 l 5
 218 1168 l 5
 240 1244 l 5
 1215 1244 l 5
 1146 925 l 5
 1062 938 l 5
 1042 1153 l 5
 590 1153 l 5
 517 677 l 5
 808 677 l 5
 859 796 l 5
 955 809 l 5
 872 421 l 5
 785 408 l 5
 778 583 l 5
 502 583 l 5
 425 96 l 5
 932 96 l 5
 1045 325 l 5
 1128 314 l 5
 1067 0 l 5
 41 0 l 5
EndSplineSet
Colour: ffffff
EndChar

StartChar: F
Encoding: 70 70 26
Width: 1279
VWidth: 1691
Flags: HMW
LayerCount: 3
Fore
SplineSet
41 0 m 1
 61 74 l 1
 236 121 l 1
 395 1126 l 1
 218 1168 l 1
 240 1244 l 1
 1234 1244 l 1
 1165 923 l 1
 1079 936 l 1
 1055 1153 l 1
 590 1153 l 1
 515 670 l 1
 803 670 l 1
 854 791 l 1
 945 804 l 1
 870 413 l 5
 779 398 l 5
 775 578 l 1
 500 578 l 1
 428 122 l 1
 659 84 l 1
 633 0 l 1
 41 0 l 1
EndSplineSet
Colour: ffffff
EndChar

StartChar: G
Encoding: 71 71 27
Width: 1314
VWidth: 1691
Flags: HMW
LayerCount: 3
Fore
SplineSet
48 489 m 0
 48 980 451 1260 820 1260 c 0
 1013 1260 1140 1229 1231 1163 c 1
 1155 841 l 1
 1069 855 l 1
 1064 1047 l 1
 1029 1100 936 1161 754 1161 c 0
 522 1161 276 1004 276 559 c 0
 276 298 402 76 681 76 c 0
 785 76 843 99 871 122 c 1
 919 434 l 1
 689 472 l 1
 714 555 l 1
 1271 555 l 1
 1247 481 l 1
 1115 439 l 1
 1061 88 l 1
 949 15 765 -31 544 -31 c 0
 196 -31 48 213 48 489 c 0
EndSplineSet
Colour: ffffff
EndChar

StartChar: H
Encoding: 72 72 28
Width: 1648
VWidth: 1691
Flags: HMW
LayerCount: 3
Fore
SplineSet
41 0 m 5
 61 74 l 5
 236 121 l 5
 395 1126 l 5
 218 1168 l 5
 240 1244 l 5
 785 1244 l 5
 763 1168 l 5
 590 1130 l 5
 520 692 l 5
 1148 692 l 5
 1217 1126 l 5
 1039 1168 l 5
 1062 1244 l 5
 1607 1244 l 5
 1584 1168 l 5
 1412 1130 l 5
 1252 114 l 5
 1429 81 l 5
 1405 0 l 5
 862 0 l 5
 885 74 l 5
 1059 121 l 5
 1133 590 l 5
 504 590 l 5
 429 114 l 5
 609 81 l 5
 583 0 l 5
 41 0 l 5
EndSplineSet
Colour: ffffff
EndChar

StartChar: I
Encoding: 73 73 29
Width: 826
VWidth: 1691
Flags: HMW
LayerCount: 3
Fore
SplineSet
41 0 m 1
 61 74 l 1
 236 121 l 1
 395 1126 l 1
 218 1168 l 1
 240 1244 l 1
 785 1244 l 5
 763 1168 l 1
 588 1130 l 1
 428 114 l 1
 605 81 l 1
 581 0 l 1
 41 0 l 1
EndSplineSet
Colour: ffffff
EndChar

StartChar: J
Encoding: 74 74 30
Width: 924
VWidth: 1691
Flags: HMW
LayerCount: 3
Fore
SplineSet
40 -238 m 1
 218 -91 319 37 344 197 c 2
 493 1126 l 1
 318 1168 l 1
 338 1244 l 1
 883 1244 l 1
 863 1168 l 1
 688 1130 l 1
 560 318 l 2
 504 -37 399 -137 82 -325 c 1
 65 -302 48 -269 40 -238 c 1
EndSplineSet
Colour: ffffff
EndChar

StartChar: K
Encoding: 75 75 31
Width: 1430
VWidth: 1691
Flags: HMW
LayerCount: 3
Fore
SplineSet
41 0 m 1
 62 74 l 1
 244 129 l 1
 399 1118 l 1
 217 1168 l 1
 242 1244 l 1
 792 1244 l 1
 771 1168 l 1
 592 1121 l 1
 437 124 l 1
 619 81 l 1
 594 0 l 1
 41 0 l 1
540 604 m 1
 544 629 l 1
 580 654 632 696 672 737 c 2
 1027 1121 l 1
 871 1168 l 1
 891 1244 l 1
 1388 1244 l 1
 1365 1168 l 1
 1182 1121 l 1
 728 644 l 1
 911 378 l 2
 1032 202 1102 123 1223 83 c 2
 1258 71 l 1
 1236 2 l 1
 1188 -15 1144 -21 1103 -21 c 0
 936 -21 832 102 744 261 c 2
 609 509 l 1
 609 509 565 579 540 604 c 1
EndSplineSet
Colour: ffffff
EndChar

StartChar: L
Encoding: 76 76 32
Width: 1140
VWidth: 1691
Flags: HMW
LayerCount: 3
Fore
SplineSet
41 0 m 5
 61 74 l 5
 236 121 l 5
 393 1118 l 5
 211 1168 l 5
 236 1244 l 5
 786 1244 l 5
 764 1168 l 5
 586 1121 l 5
 424 96 l 5
 877 96 l 5
 1015 344 l 5
 1099 330 l 5
 1040 0 l 5
 41 0 l 5
EndSplineSet
Colour: ffffff
EndChar

StartChar: M
Encoding: 77 77 33
Width: 1829
VWidth: 1691
Flags: HMW
LayerCount: 3
Fore
SplineSet
40 0 m 1
 63 74 l 1
 238 121 l 1
 429 1126 l 1
 251 1168 l 1
 274 1244 l 1
 667 1244 l 1
 723 1050 l 1
 898 310 l 1
 1289 1083 l 1
 1388 1244 l 1
 1788 1244 l 1
 1767 1168 l 1
 1593 1130 l 1
 1526 114 l 1
 1703 81 l 1
 1679 0 l 1
 1144 0 l 1
 1168 74 l 1
 1341 121 l 1
 1382 1004 l 1
 890 51 l 1
 763 31 l 1
 525 966 l 1
 367 114 l 1
 547 81 l 1
 520 0 l 1
 40 0 l 1
EndSplineSet
Colour: ffffff
EndChar

StartChar: N
Encoding: 78 78 34
Width: 1577
VWidth: 1691
Flags: HMW
LayerCount: 3
Fore
SplineSet
41 0 m 5
 61 74 l 5
 236 121 l 5
 393 1118 l 5
 218 1168 l 5
 240 1244 l 5
 588 1244 l 5
 1082 262 l 5
 1217 1126 l 5
 1037 1168 l 5
 1060 1244 l 5
 1536 1244 l 5
 1511 1168 l 5
 1339 1130 l 5
 1161 2 l 5
 1001 -30 l 5
 496 961 l 5
 362 114 l 5
 540 81 l 5
 517 0 l 5
 41 0 l 5
EndSplineSet
Colour: ffffff
EndChar

StartChar: O
Encoding: 79 79 35
Width: 1339
VWidth: 1691
Flags: HMW
LayerCount: 3
Fore
SplineSet
49 515 m 0
 49 958 323 1273 777 1273 c 0
 1126 1273 1292 1016 1292 725 c 0
 1292 327 1034 -26 563 -26 c 0
 206 -26 49 214 49 515 c 0
278 547 m 0
 278 314 381 79 609 79 c 0
 1020 79 1068 467 1068 693 c 0
 1068 924 962 1176 732 1176 c 0
 316 1176 278 800 278 547 c 0
EndSplineSet
Colour: ffffff
EndChar

StartChar: P
Encoding: 80 80 36
Width: 1225
VWidth: 1691
Flags: HMW
LayerCount: 3
Fore
SplineSet
41 0 m 1
 63 74 l 1
 239 121 l 1
 393 1105 l 1
 228 1135 l 1
 249 1211 l 1
 381 1231 563 1255 733 1255 c 0
 968 1255 1182 1170 1182 926 c 0
 1182 650 937 490 669 490 c 0
 633 490 595 494 555 499 c 1
 548 581 l 1
 601 581 l 2
 854 581 968 694 968 907 c 0
 968 1058 887 1173 702 1173 c 0
 661 1173 594 1168 594 1168 c 1
 431 122 l 1
 660 84 l 1
 634 0 l 1
 41 0 l 1
EndSplineSet
Colour: ffffff
EndChar

StartChar: Q
Encoding: 81 81 37
Width: 1356
VWidth: 1691
Flags: HMW
LayerCount: 3
Fore
SplineSet
48 515 m 4
 48 964 343 1273 791 1273 c 4
 1135 1273 1309 1008 1309 723 c 4
 1309 376 1078 77 718 -7 c 5
 754 -142 829 -228 1110 -276 c 5
 1105 -301 1096 -332 1086 -350 c 5
 1018 -380 959 -385 903 -385 c 4
 721 -385 581 -249 599 -21 c 5
 589 -24 560 -26 545 -26 c 4
 244 -26 48 214 48 515 c 4
261 560 m 4
 261 345 354 86 660 68 c 5
 1045 162 1093 462 1093 680 c 4
 1093 928 971 1168 748 1168 c 4
 447 1168 261 924 261 560 c 4
EndSplineSet
Colour: ffffff
EndChar

StartChar: R
Encoding: 82 82 38
Width: 1290
VWidth: 1691
Flags: HMW
LayerCount: 3
Fore
SplineSet
41 0 m 1
 63 74 l 1
 239 121 l 1
 393 1102 l 1
 226 1131 l 1
 249 1207 l 1
 399 1230 564 1253 713 1253 c 0
 981 1253 1157 1174 1157 978 c 0
 1157 823 1045 675 824 599 c 1
 826 598 l 1
 964 348 l 2
 1063 168 1102 115.668 1245 68 c 1
 1220 -2 l 1
 1175 -17 1134 -21 1096 -21 c 0
 937 -21 848 98 784 253 c 2
 669 537 l 1
 495 537 l 1
 433 126 l 1
 613 83 l 1
 589 0 l 1
 41 0 l 1
508 628 m 1
 674 628 l 2
 808 628 953 766 953 943 c 0
 953 1086 868 1169 716 1169 c 0
 645 1169 594 1164 594 1164 c 1
 508 628 l 1
EndSplineSet
Colour: ffffff
EndChar

StartChar: S
Encoding: 83 83 39
Width: 942
VWidth: 1691
Flags: HMW
LayerCount: 3
Fore
SplineSet
42 122 m 1
 99 390 l 1
 198 375 l 1
 204 187 l 1
 232 123 297 78 394 78 c 0
 510 78 668 149 668 312 c 0
 668 524 189 556 189 880 c 0
 189 1134 417 1270 635 1270 c 0
 723 1270 835 1247 901 1169 c 1
 899 1161 835 887 835 887 c 1
 738 898 l 1
 741 1090 l 1
 734 1118 671 1184 587 1184 c 0
 473 1184 374 1120 374 968 c 0
 374 736 865 708 865 380 c 0
 865 127 606 -25 355 -25 c 0
 211 -25 83 41 42 122 c 1
EndSplineSet
Colour: ffffff
EndChar

StartChar: T
Encoding: 84 84 40
Width: 1244
VWidth: 1691
Flags: HMW
LayerCount: 3
Fore
SplineSet
47 923 m 5
 89 1244 l 5
 1200 1244 l 5
 1114 907 l 5
 1022 922 l 5
 1019 1153 l 5
 715 1153 l 5
 551 114 l 5
 730 81 l 5
 703 0 l 5
 163 0 l 5
 185 74 l 5
 361 121 l 5
 523 1153 l 5
 228 1153 l 5
 137 910 l 5
 47 923 l 5
EndSplineSet
Colour: ffffff
EndChar

StartChar: U
Encoding: 85 85 41
Width: 1458
VWidth: 1691
Flags: HMW
LayerCount: 3
Fore
SplineSet
48 1168 m 1
 71 1244 l 1
 612 1244 l 1
 593 1168 l 1
 418 1130 l 1
 318 494 l 2
 273 208 399 92 604 92 c 0
 905 92 966 326 991 481 c 2
 1093 1126 l 1
 918 1168 l 1
 938 1244 l 1
 1417 1244 l 1
 1395 1168 l 1
 1222 1130 l 1
 1118 499 l 2
 1054 114 825 -26 518 -26 c 0
 330 -26 58 48 124 469 c 2
 228 1126 l 1
 48 1168 l 1
EndSplineSet
Colour: ffffff
EndChar

StartChar: V
Encoding: 86 86 42
Width: 1388
VWidth: 1691
Flags: HMW
LayerCount: 3
Fore
SplineSet
53 1168 m 1
 74 1244 l 1
 601 1244 l 1
 580 1168 l 1
 406 1130 l 1
 644 240 l 1
 1047 1126 l 1
 870 1168 l 1
 890 1244 l 1
 1346 1244 l 1
 1326 1168 l 1
 1191 1130 l 1
 667 5 l 1
 512 -25 l 1
 192 1126 l 1
 53 1168 l 1
EndSplineSet
Colour: ffffff
EndChar

StartChar: W
Encoding: 87 87 43
Width: 1913
VWidth: 1691
Flags: HMW
LayerCount: 3
Fore
SplineSet
52 1168 m 1
 71 1244 l 1
 585 1244 l 1
 560 1168 l 1
 387 1130 l 1
 514 252 l 1
 908 1194 l 1
 1089 1219 l 1
 1231 269 l 1
 1574 1126 l 1
 1399 1168 l 1
 1422 1244 l 1
 1871 1244 l 1
 1848 1168 l 1
 1721 1130 l 1
 1238 5 l 1
 1079 -25 l 1
 931 951 l 1
 536 5 l 1
 371 -25 l 1
 184 1126 l 1
 52 1168 l 1
EndSplineSet
Colour: ffffff
EndChar

StartChar: X
Encoding: 88 88 44
Width: 1457
VWidth: 1691
Flags: HMW
LayerCount: 3
Fore
SplineSet
41 0 m 1
 66 74 l 1
 195 121 l 1
 636 627 l 1
 378 1118 l 1
 253 1168 l 1
 276 1244 l 1
 803 1244 l 1
 779 1168 l 1
 601 1121 l 1
 793 725 l 1
 1121 1126 l 1
 940 1168 l 1
 963 1244 l 1
 1415 1244 l 1
 1395 1168 l 1
 1263 1130 l 1
 848 637 l 1
 1106 114 l 1
 1240 81 l 1
 1214 0 l 1
 700 0 l 1
 725 74 l 1
 900 121 l 1
 687 536 l 1
 340 114 l 1
 517 81 l 1
 494 0 l 1
 41 0 l 1
EndSplineSet
Colour: ffffff
EndChar

StartChar: Y
Encoding: 89 89 45
Width: 1229
VWidth: 1691
Flags: HMW
LayerCount: 3
Fore
SplineSet
52 1168 m 1
 76 1244 l 1
 583 1244 l 1
 560 1168 l 1
 397 1130 l 1
 597 641 l 1
 897 1126 l 1
 720 1168 l 1
 742 1244 l 1
 1186 1244 l 1
 1164 1168 l 1
 1036 1130 l 1
 635 528 l 1
 570 114 l 1
 729 81 l 1
 706 0 l 1
 199 0 l 1
 220 74 l 1
 379 121 l 1
 440 505 l 1
 182 1126 l 1
 52 1168 l 1
EndSplineSet
Colour: ffffff
EndChar

StartChar: Z
Encoding: 90 90 46
Width: 1221
VWidth: 1691
Flags: HMW
LayerCount: 3
Fore
SplineSet
42 0 m 1
 51 104 l 1
 920 1149 l 1
 404 1149 l 1
 306 903 l 1
 219 922 l 1
 260 1244 l 1
 1178 1244 l 1
 1167 1168 l 1
 265 101 l 1
 855 101 l 1
 987 350 l 1
 1078 335 l 1
 999 0 l 1
 42 0 l 1
EndSplineSet
Colour: ffffff
EndChar

StartChar: backslash
Encoding: 92 92 48
Width: 473
VWidth: 0
Flags: HMW
LayerCount: 3
Fore
SplineSet
68 1244 m 1
 199 1235 l 1
 409 -363 l 1
 281 -355 l 1
 68 1244 l 1
EndSplineSet
Colour: ffffff
EndChar

StartChar: bracketright
Encoding: 93 93 49
Width: 656
VWidth: 0
Flags: HMW
LayerCount: 3
Fore
SplineSet
61 -375 m 1
 66 -279 l 1
 211 -259 l 1
 434 1146 l 1
 297 1166 l 1
 322 1255 l 1
 593 1255 l 1
 337 -377 l 1
 61 -375 l 1
EndSplineSet
Colour: ffffff
EndChar

StartChar: asciicircum
Encoding: 94 94 50
Width: 786
VWidth: 0
Flags: HMW
LayerCount: 3
Fore
SplineSet
76 826 m 1
 431 1237 l 1
 487 1250 l 1
 715 824 l 1
 654 788 l 1
 426 1073 l 1
 416 1073 l 1
 120 793 l 1
 76 826 l 1
EndSplineSet
Colour: ffffff
EndChar

StartChar: underscore
Encoding: 95 95 51
Width: 1010
VWidth: 0
Flags: HMW
LayerCount: 3
Fore
SplineSet
83 -132 m 1
 95 -27 l 1
 923 -27 l 1
 912 -132 l 1
 83 -132 l 1
EndSplineSet
Colour: ffffff
EndChar

StartChar: grave
Encoding: 96 96 52
Width: 446
VWidth: 0
Flags: HMW
LayerCount: 3
Fore
SplineSet
99 1659 m 1
 214 1697 l 1
 346 1364 l 1
 290 1329 l 1
 99 1659 l 1
EndSplineSet
Colour: ffffff
EndChar

StartChar: a
Encoding: 97 97 53
Width: 847
VWidth: 0
Flags: HMW
LayerCount: 3
Fore
SplineSet
44 274 m 4
 44 667 333 885 554 885 c 7
 631 885 720 876 755 832 c 5
 683 378 l 6
 648 153 652 105 711 96 c 14
 787 84 l 22
 769 15 l 5
 734 2 678 -17 618 -17 c 31
 525 -17 469 44 493 132 c 5
 481 132 l 5
 435 49 346 -21 245 -21 c 7
 123 -21 44 91 44 274 c 4
205 320 m 4
 205 171 247 106 326 106 c 7
 402 106 452 150 498 201 c 5
 584 746 l 5
 556 772 511 781 465 781 c 7
 305 781 205 533 205 320 c 4
EndSplineSet
Colour: ffffff
EndChar

StartChar: b
Encoding: 98 98 54
Width: 883
VWidth: 0
Flags: HMW
LayerCount: 3
Fore
SplineSet
78 50 m 9
 249 1120.1 l 22
 264 1213.1 192 1206.1 118 1204.1 c 13
 127 1284.1 l 21
 170 1305.1 220 1317.1 280 1317.1 c 4
 412 1317.1 426 1248.1 407 1124.1 c 6
 357 842 l 1
 329 722 l 1
 341 722 l 1
 393 813 503 890 594 890 c 3
 762 890 838 731 838 544 c 0
 838 260 626 -23 310 -23 c 3
 237 -23 134 -1 78 50 c 9
248 155 m 17
 273 112 335 84 397 84 c 0
 559 84 671 289 671 483 c 0
 671 613 629 748 509 748 c 3
 425 748 378 702 332 646 c 9
 248 155 l 17
EndSplineSet
Colour: ffffff
EndChar

StartChar: c
Encoding: 99 99 55
Width: 748
VWidth: 0
Flags: HMW
LayerCount: 3
Fore
SplineSet
44 308 m 4
 44 644 295 888 534 888 c 7
 652 888 720 825 720 731 c 31
 720 668 660 633 591 627 c 5
 563 711 538 791 451 791 c 4
 281 791 217 546 217 380 c 4
 217 197 279 106 418 106 c 4
 502 106 581 148 631 179 c 5
 655 118 l 5
 585 39 458 -24 347 -24 c 7
 169 -24 44 85 44 308 c 4
EndSplineSet
Layer: 2
SplineSet
401 96 m 7
 502.142 96 563.071 124.154 624 157 c 5
 648 106 l 5
 577.896 32.2353 451.478 -26 340 -26 c 7
 159.521 -26 47 94.5519 47 307 c 4
 47 667.811 261.667 890 507 890 c 7
 639.476 890 715 827.972 715 736 c 31
 715 673.053 654.676 638.386 586 632 c 5
 547 744.931 527.123 791.754 420.077 791.754 c 4
 290.156 791.754 219 523.445 219 330 c 4
 219 193.336 272.882 96 401 96 c 7
EndSplineSet
Colour: ffffff
EndChar

StartChar: d
Encoding: 100 100 56
Width: 884
VWidth: 0
Flags: HMW
LayerCount: 3
Fore
SplineSet
43.75 286 m 0
 43.75 669 329.75 884 585.75 884 c 3
 607.566 884 626 882 632.75 881 c 1
 661 1120.1 l 2
 671 1213.1 604 1206.1 530 1204.1 c 9
 539 1284.1 l 17
 582 1305.1 632 1317.1 692 1317.1 c 0
 824 1317.1 839 1248.1 819 1124.1 c 2
 702.75 380 l 18
 685.136 266.818 675.684 200.124 675.684 160.101 c 0
 675.684 84.7374 727.54 95.5349 784.75 86 c 17
 765.75 17 l 1
 732.75 4 682.75 -15 626.75 -15 c 3
 531.756 -15 500 41 512.75 122 c 1
 499.75 122 l 1
 453.75 44 364.75 -21 263.75 -21 c 3
 132.75 -21 43.75 76 43.75 286 c 0
206.75 337 m 0
 206.75 172 250.75 106 340.75 106 c 3
 423.75 106 473.75 145 514.75 201 c 9
 596.75 736 l 17
 569.75 757 535.75 781 470.75 781 c 3
 316.75 781 206.75 571 206.75 337 c 0
EndSplineSet
Colour: ffffff
EndChar

StartChar: e
Encoding: 101 101 57
Width: 716
VWidth: 0
Flags: HMW
LayerCount: 3
Fore
SplineSet
44 289 m 0
 44 614 243 890 466 890 c 3
 577 890 648 814 648 692 c 0
 648 426 413 370 209 376 c 1
 197 203 235 102 356 102 c 3
 468 102 547 152 576 177 c 1
 602 132 l 1
 557 63 428 -30 292 -30 c 27
 134 -30 44 68 44 289 c 0
218 449 m 1
 365 450 498 481 498 663 c 0
 498 734 464 798 406 798 c 3
 330 798 231 728 218 449 c 1
EndSplineSet
Colour: ffffff
EndChar

StartChar: f
Encoding: 102 102 58
Width: 619
VWidth: 0
Flags: HMW
LayerCount: 3
Fore
SplineSet
-376 -256.1 m 0
 -376 -210 -334 -180 -299 -164.1 c 1
 -248.153 -226.1 -200.755 -272.1 -117 -272.1 c 0
 -35.4033 -272.1 43.4721 -235.818 112 139 c 2
 227 768 l 1
 78 768 l 1
 92 836 l 1
 249 872 l 1
 296.992 1162.24 485.207 1317.1 636 1317.1 c 3
 749.29 1317.1 800 1282 800 1204.1 c 16
 800 1168.1 771.667 1123.1 705 1101.1 c 1
 654.153 1163.1 626.755 1209.1 543 1209.1 c 3
 461.403 1209.1 432.791 1115.13 401 858 c 1
 581 858 l 1
 563 768 l 1
 388 768 l 1
 286 225 l 2
 180.008 -339.25 -65 -380.1 -210 -380.1 c 0
 -323.29 -380.1 -376 -319 -376 -256.1 c 0
EndSplineSet
Colour: ffff
EndChar

StartChar: g
Encoding: 103 103 59
Width: 765
VWidth: 0
Flags: HMW
LayerCount: 3
Fore
SplineSet
-119.528 -177 m 0
 -119.528 -74 -3.52832 11 90.4717 37 c 1
 90.4717 45 l 1
 49.4717 61 4.47168 88 4.47168 163 c 0
 4.47168 235 114.472 307 186.472 330 c 1
 181.472 338 l 1
 143.472 354 75.4717 444 75.4717 530 c 0
 75.4717 725 253.472 897 438.472 897 c 0
 630 897 646.472 731 646.472 631 c 0
 646.472 438 437.472 278 264.472 311 c 1
 226.472 299 181.472 260 181.472 220 c 0
 181.472 175 232.472 173 329.472 169 c 0
 510.472 161 666.472 130 666.472 -69 c 0
 666.472 -241 426.472 -375 195.472 -375 c 0
 41.4717 -375 -119.528 -322 -119.528 -177 c 0
29.4717 -128 m 0
 29.4717 -220 137.472 -279 255.472 -279 c 0
 387.472 -279 495.472 -219 495.472 -132 c 0
 495.472 21 351.472 22 165.472 22 c 1
 113.472 8 29.4717 -54 29.4717 -128 c 0
227.472 542 m 0
 227.472 463 265.472 380 337.472 380 c 0
 449.472 380 498.472 533 498.472 661 c 0
 498.472 741 475.472 822 405.472 822 c 0
 290.472 822 227.472 667 227.472 542 c 0
565.472 834 m 1
 796.472 859 l 1
 813.472 836 l 1
 768.472 715 l 1
 752.472 715 l 1
 603.472 765 l 1
 565.472 834 l 1
EndSplineSet
Colour: ffff
EndChar

StartChar: h
Encoding: 104 104 60
Width: 929
VWidth: 0
Flags: HMW
LayerCount: 3
Fore
SplineSet
79 0 m 9
 248 1120.1 l 22
 262 1213.1 191 1206.1 117 1204.1 c 13
 126 1284.1 l 21
 169 1305.1 219 1317.1 279 1317.1 c 4
 411 1317.1 425 1248.1 406 1124.1 c 6
 363 846 l 1
 335 722 l 1
 347 722 l 1
 404 796 513 893 636 893 c 3
 774 893 834 808 800 613 c 10
 765 378 l 2
 750 283 742 216 742 172 c 0
 742 95 800 94 869 96 c 1
 861 15 l 1
 832 0 776 -17 720 -17 c 3
 588 -17 557 48 582 194 c 10
 633 525 l 18
 661 661 638 745 529 745 c 3
 432 745 376 698 337 662 c 9
 242 0 l 1
 79 0 l 9
EndSplineSet
Colour: ffffff
EndChar

StartChar: i
Encoding: 105 105 61
Width: 533
VWidth: 0
Flags: HMW
LayerCount: 3
Fore
SplineSet
85 773 m 13
 94 853 l 21
 137 874 187 886 247 886 c 4
 379 886 392 817 374 693 c 6
 328 378 l 6
 314 281 305 216 305 172 c 4
 305 95 363 94 432 96 c 5
 424 15 l 5
 395 0 339 -17 283 -17 c 7
 151 -17 124 47 145 194 c 6
 216 689 l 6
 231 782 159 775 85 773 c 13
246 1177 m 4
 246 1236 294 1292 365 1292 c 4
 424 1292 473 1244 473 1179 c 4
 473 1115 420 1069 354 1069 c 4
 295 1069 246 1117 246 1177 c 4
EndSplineSet
Colour: ffffff
EndChar

StartChar: j
Encoding: 106 106 62
Width: 518
VWidth: 0
Flags: HMW
LayerCount: 3
Fore
SplineSet
-123 -307 m 5
 26 -198 110 -70 135 99 c 14
 220 683 l 22
 235 776 163 769 89 767 c 13
 98 847 l 21
 141 868 191 880 251 880 c 4
 383 880 398 811 378 687 c 6
 290 86 l 22
 249 -196 31 -336 -73 -386 c 5
 -123 -307 l 5
236 1177 m 4
 236 1237 286 1293 357 1293 c 4
 417 1293 466 1244 466 1179 c 4
 466 1115 413 1068 346 1068 c 4
 287 1068 236 1116 236 1177 c 4
EndSplineSet
Colour: ffffff
EndChar

StartChar: k
Encoding: 107 107 63
Width: 841
VWidth: 0
Flags: HMW
LayerCount: 3
Fore
SplineSet
78 0 m 9
 248 1120.1 l 22
 262 1213.1 191 1206.1 117 1204.1 c 13
 126 1284.1 l 21
 169 1305.1 219 1317.1 279 1317.1 c 4
 411 1317.1 425 1248.1 406 1124.1 c 14
 241 0 l 1
 78 0 l 9
343 434 m 1
 346 451 l 1
 475 529 614 670 614 738 c 0
 614 783 567 790 515 777 c 9
 524 857 l 17
 559 878 599 890 647 890 c 0
 732 890 764 861 764 770 c 0
 764 649 542 497 493 466 c 1
 530 383 l 2
 620 180 690 109 793 89 c 2
 819 84 l 1
 806 6 l 1
 760 -8 720 -15 684 -15 c 0
 564 -15 501 40 402 287 c 2
 343 434 l 1
EndSplineSet
Colour: ffffff
EndChar

StartChar: l
Encoding: 108 108 64
Width: 450
VWidth: 0
Flags: HMW
LayerCount: 3
Fore
SplineSet
85.1523 194 m 2
 228 1120.1 l 2
 243 1213.1 171 1206.1 97 1204.1 c 9
 106 1284.1 l 17
 149 1305.1 199 1317.1 259 1317.1 c 0
 391 1317.1 404 1248.1 386 1124.1 c 2
 268.152 378 l 2
 253 283 245.152 216 245.152 172 c 0
 245.152 95 303.152 94 372.152 96 c 1
 364.152 15 l 1
 335.152 0 279.152 -17 223.152 -17 c 3
 91.1523 -17 63 48 85.1523 194 c 2
EndSplineSet
Colour: ffffff
EndChar

StartChar: m
Encoding: 109 109 65
Width: 1442
VWidth: 0
Flags: HMW
LayerCount: 3
Fore
SplineSet
85 781 m 9
 94 861 l 17
 137 882 187 894 247 894 c 3
 363 894 408 840 380 722 c 1
 392 722 l 1
 448 796 555 893 676 893 c 3
 810 893 857 809 835 613 c 10
 765 0 l 1
 602 0 l 9
 668 525 l 18
 685 662 673 745 569 745 c 3
 475 745 420 698 382 662 c 9
 287 0 l 1
 124 0 l 9
 216 697 l 18
 230 790 159 783 85 781 c 9
821 625 m 1
 831 685 l 1
 895 775 1016 893 1154 893 c 3
 1280 893 1326 809 1304 613 c 10
 1278 378 l 2
 1267 285 1255 218 1255 175 c 0
 1255 98 1313 97 1382 99 c 1
 1374 18 l 1
 1345 3 1289 -14 1233 -14 c 3
 1101 -14 1076 51 1095 197 c 10
 1137 525 l 18
 1155 662 1142 745 1047 745 c 3
 933 745 867 677 821 625 c 1
EndSplineSet
Colour: ffffff
EndChar

StartChar: n
Encoding: 110 110 66
Width: 964
VWidth: 0
Flags: HMW
LayerCount: 3
Fore
SplineSet
85 781 m 9
 94 861 l 17
 137 882 187 894 247 894 c 3
 363 894 408 840 380 722 c 1
 392 722 l 1
 448 796 555 893 676 893 c 3
 810 893 868 808 835 613 c 10
 800 378 l 2
 785 284 777 218 777 175 c 0
 777 98 835 97 904 99 c 1
 896 18 l 1
 867 3 811 -14 755 -14 c 3
 623 -14 592 51 617 197 c 10
 668 525 l 18
 689 662 673 745 569 745 c 3
 475 745 420 698 382 662 c 9
 287 0 l 1
 124 0 l 9
 216 697 l 18
 230 790 159 783 85 781 c 9
EndSplineSet
Colour: ffffff
EndChar

StartChar: o
Encoding: 111 111 67
Width: 859
VWidth: 0
Flags: HMW
LayerCount: 3
Fore
SplineSet
44.6387 347 m 0
 44.6387 628 233.639 893 498.639 893 c 3
 694.639 893 781.639 704 781.639 515 c 0
 781.639 247 598.639 -26 333.639 -26 c 3
 143.639 -26 44.6387 138 44.6387 347 c 0
209.639 388 m 0
 209.639 194 292.639 94 396.639 94 c 0
 537.639 94 615.639 238 615.639 472 c 0
 615.639 628 562.639 775 418.639 775 c 3
 295.639 775 209.639 640 209.639 388 c 0
EndSplineSet
Colour: ffffff
EndChar

StartChar: p
Encoding: 112 112 68
Width: 945
VWidth: 0
Flags: HMW
LayerCount: 3
Fore
SplineSet
50 -366 m 1
 203 675 l 2
 217 768 146 761 72 759 c 9
 81 839 l 17
 124 860 174 872 234 872 c 0
 363 872 377 818 358 722 c 1
 371 720 l 1
 414 799 518 890 628 890 c 3
 762 890 868 764 868 542 c 0
 868 246 622 -17 382 -17 c 3
 347 -17 313 -14 295 -8 c 9
 318 114 l 17
 347 100 368 89 446 89 c 3
 537 89 699 194 699 486 c 0
 699 651 626 746 548 746 c 3
 467 746 428 717 362 651 c 1
 209 -366 l 1
 50 -366 l 1
EndSplineSet
Colour: ffffff
EndChar

StartChar: q
Encoding: 113 113 69
Width: 816
VWidth: 0
Flags: HMW
LayerCount: 3
Fore
SplineSet
44 264 m 0
 44 663 334 885 555 885 c 3
 632 885 721 876 756 832 c 9
 635 24 l 18
 620.486 -72.923 612 -138 612 -182 c 0
 612 -259 670 -260 739 -258 c 1
 731 -339 l 1
 702 -354 646 -371 590 -371 c 3
 458 -371 430.758 -304.699 452 -160 c 10
 585 746 l 17
 557 772 512 781 466 781 c 3
 306 781 206 533 206 320 c 0
 206 203 245 102 328 102 c 3
 378 102 430 117 459 137 c 1
 462 82 l 1
 417 27 358 -21 239 -21 c 3
 112 -21 44 102 44 264 c 0
EndSplineSet
Colour: ffffff
EndChar

StartChar: r
Encoding: 114 114 70
Width: 686
VWidth: 0
Flags: HMW
LayerCount: 3
Fore
SplineSet
85 781 m 9
 94 861 l 17
 137 882 187 894 247 894 c 3
 363 894 404 841 380 722 c 10
 357 607 l 17
 368 607 l 1
 410 738 500 892 601 892 c 3
 663 892 697 849 697 797 c 0
 697 753 679 703 641 665 c 1
 613 693 589 699 555 699 c 3
 466 699 391 575 358 508 c 9
 291 0 l 1
 124 0 l 1
 216 697 l 2
 228 790 159 783 85 781 c 9
EndSplineSet
Colour: ffffff
EndChar

StartChar: s
Encoding: 115 115 71
Width: 725
VWidth: 0
Flags: HMW
LayerCount: 3
Fore
SplineSet
51 142 m 4
 51 200 97 251 181 258 c 5
 210 98 259 54 366 54 c 7
 440 54 486 109 486 169 c 4
 486 339 133 383 133 634 c 4
 133 769 274 902 452 902 c 7
 575 902 672 856 672 753 c 4
 672 683 624 640 543 634 c 5
 516 768 483 826 401 826 c 7
 337 826 278 786 278 697 c 4
 278 519 639 454 639 220 c 4
 639 75 465 -35 318 -35 c 7
 145 -35 51 53 51 142 c 4
EndSplineSet
Colour: ffffff
EndChar

StartChar: t
Encoding: 116 116 72
Width: 598
VWidth: 0
Flags: HMW
LayerCount: 3
Fore
SplineSet
85 766 m 17
 95 862 l 9
 573 862 l 17
 554 766 l 9
 85 766 l 17
111 289 m 10
 234 1080 l 25
 388 1080 l 25
 271 347 l 18
 243 175 264 122 381 122 c 3
 423 122 460 138 486 155 c 1
 499 102 l 1
 446 33 369 -21 273 -21 c 3
 119 -21 80 88 111 289 c 10
EndSplineSet
Colour: ffffff
EndChar

StartChar: u
Encoding: 117 117 73
Width: 924
VWidth: 0
Flags: HMWO
LayerCount: 3
Back
SplineSet
545 773 m 9
 554 853 l 17
 597 874 647 886 707 886 c 0
 839 886 852 817 834 693 c 2
 788 378 l 6
 774 281 765 216 765 172 c 4
 765 95 823 94 892 96 c 5
 884 15 l 5
 855 0 799 -17 743 -17 c 7
 611 -17 584 47 605 194 c 2
 676 689 l 2
 691 782 619 775 545 773 c 9
706 1177 m 0
 706 1236 754 1292 825 1292 c 0
 884 1292 933 1244 933 1179 c 0
 933 1115 880 1069 814 1069 c 0
 755 1069 706 1117 706 1177 c 0
EndSplineSet
Fore
SplineSet
85 773 m 9
 94 853 l 17
 137 874 187 886 247 886 c 0
 379 886 394 817 374 693 c 10
 321 345 l 18
 300 208 316 125 420 125 c 3
 514 125 569 172 607 208 c 9
 676 689 l 2
 690 782 619 775 545 773 c 9
 554 853 l 17
 597 874 647 886 707 886 c 0
 839 886 852 818 834 693 c 10
 788 376 l 18
 775 279 765 214 765 170 c 0
 765 93 823 92 892 94 c 1
 884 13 l 1
 855 -2 797 -19 739 -19 c 27
 656 -19 584 33 609 148 c 1
 597 148 l 1
 541 74 434 -23 313 -23 c 3
 179 -23 125 61 154 257 c 10
 216 689 l 2
 230 782 159 775 85 773 c 9
EndSplineSet
Colour: ffffff
EndChar

StartChar: v
Encoding: 118 118 74
Width: 830
VWidth: 0
Flags: HMW
LayerCount: 3
Fore
SplineSet
63 773 m 13
 72 853 l 21
 113 874 159 886 215 886 c 4
 332 886 344 804 363 669 c 6
 434 155 l 5
 554 365 642 527 642 738 c 4
 642 781 595 790 543 777 c 13
 552 857 l 21
 587 878 627 890 675 890 c 4
 760 890 792 845 792 770 c 4
 792 637 572 234 427 -10 c 5
 323 -28 l 5
 197 689 l 6
 180 782 139 775 63 773 c 13
EndSplineSet
Colour: ffffff
EndChar

StartChar: w
Encoding: 119 119 75
Width: 1223
VWidth: 0
Flags: HMW
LayerCount: 3
Fore
SplineSet
63 773 m 1
 72 853 l 1
 113 874 159 886 215 886 c 0
 332 886 344 804 363 669 c 2
 434 175 l 1
 518 399 584 575 618 777 c 1
 728 799 l 9
 855 155 l 1
 959 365 1035 527 1035 738 c 0
 1035 781 983 790 926 777 c 1
 935 857 l 1
 973 878 1016 890 1068 890 c 0
 1153 890 1185 845 1185 770 c 0
 1185 637 982 234 848 -10 c 1
 744 -28 l 1
 625 523 l 1
 564 341 488 141 427 -10 c 1
 323 -28 l 1
 197 689 l 1
 180 782 139 775 63 773 c 1
EndSplineSet
Colour: ffffff
EndChar

StartChar: x
Encoding: 120 120 76
Width: 923
VWidth: 0
Flags: HMW
LayerCount: 3
Fore
SplineSet
40 93 m 0
 40 260 318 470 380 514 c 1
 404 474 l 1
 301 379 190 274 190 125 c 0
 190 91 237 86 289 96 c 9
 280 16 l 17
 245 -5 205 -17 157 -17 c 0
 72 -17 40 9 40 93 c 0
99 773 m 9
 108 853 l 17
 143 874 183 886 231 886 c 0
 316 886 348 862 416 713 c 2
 566 383 l 2
 666.661 163.277 724.873 109.024 855 84 c 1
 842 6 l 1
 796 -8 757 -15 721 -15 c 0
 601 -15 550 45 438 287 c 2
 253 689 l 2
 212 778 186 775 99 773 c 9
484 399 m 1
 587 491 698 593 698 738 c 0
 698 783 651 790 599 777 c 9
 608 857 l 17
 643 878 683 890 731 890 c 0
 816 890 848 861 848 770 c 0
 848 607 570 402 508 359 c 1
 484 399 l 1
EndSplineSet
Colour: ffffff
EndChar

StartChar: y
Encoding: 121 121 77
Width: 818
VWidth: 0
Flags: HMW
LayerCount: 3
Fore
SplineSet
-100.369 -257.076 m 0
 -100.369 -219.882 -83.7627 -180.763 -53 -150 c 1
 5 -189 51 -206 108 -206 c 0
 221 -206 296 -139 355 0 c 9
 195 697 l 2
 174 790 137 783 61 781 c 1
 70 861 l 1
 111 882 157 894 213 894 c 0
 330 894 338 812 361 677 c 2
 452 143 l 1
 500 228 633 495 633 746 c 0
 633 789 579.828 798 521 785 c 1
 530 865 l 1
 567.846 886 611.098 898 663 898 c 0
 748 898 780 853 780 778 c 0
 780 645 591 230 455 -2 c 0
 346.345 -193.958 235.793 -382 65 -382 c 0
 -24.1836 -382 -100.369 -339.567 -100.369 -257.076 c 0
EndSplineSet
Colour: ffffff
EndChar

StartChar: z
Encoding: 122 122 78
Width: 818
VWidth: 0
Flags: HMW
LayerCount: 3
Fore
SplineSet
30 26 m 1
 604 749 l 1
 265 749 l 1
 197 581 l 1
 129 594 l 1
 165 874 l 1
 772 874 l 1
 772 806 l 1
 259 151 l 1
 263 147 l 1
 302 156 389.87 180.384 449 156 c 2
 546 116 l 2
 628.599 84.3867 653.571 80.7744 716 172 c 1
 778 144 l 1
 674 -82 561 -64 433 -18 c 2
 300 30 l 2
 216 60 186 35 154 14 c 2
 121 -15 l 1
 30 26 l 1
EndSplineSet
Colour: ffffff
EndChar

StartChar: bar
Encoding: 124 124 80
Width: 492
VWidth: 0
Flags: HMW
LayerCount: 3
Fore
SplineSet
61 -350 m 1
 315 1255 l 1
 429 1244 l 1
 175 -363 l 1
 61 -350 l 1
EndSplineSet
Colour: ffffff
EndChar

StartChar: braceright
Encoding: 125 125 81
Width: 749
VWidth: 0
Flags: HMW
LayerCount: 3
Fore
SplineSet
60 -378 m 1
 83 -277 l 1
 118 -272 l 2
 306 -244 173 352 485 438 c 1
 486 444 l 1
 199 530 521 1121 354 1149 c 2
 316 1156 l 1
 323 1255 l 1
 382 1255 l 2
 792 1255 352 548 636 497 c 2
 683 489 l 1
 666 390 l 1
 615 381 l 2
 321 335 536 -378 121 -378 c 2
 60 -378 l 1
EndSplineSet
Colour: ffffff
EndChar

StartChar: asciitilde
Encoding: 126 126 82
Width: 936
VWidth: 0
Flags: HMW
LayerCount: 3
Fore
SplineSet
75 412 m 2
 75 412 134 624 266 611 c 2
 716 566 l 2
 753 563 798 628 798 628 c 1
 862 626 l 2
 862 626 800 409 664 424 c 2
 214 469 l 2
 174 473 130 399 130 399 c 1
 75 412 l 2
EndSplineSet
Colour: ffffff
EndChar

StartChar: sterling
Encoding: 163 163 84
Width: 1207
VWidth: 0
Flags: HMW
LayerCount: 3
Fore
SplineSet
63 0 m 5
 82 74 l 5
 257 121 l 5
 304 221 324 313 350 461 c 6
 367 549 l 5
 185 538 l 5
 213 639 l 5
 386 649 l 5
 410 786 l 5
 471 1108 664 1250 891 1250 c 4
 971 1250 1044 1244 1118 1211 c 5
 1037 895 l 5
 953 907 l 5
 946 1121 l 5
 927 1132 900 1143 864 1143 c 4
 697 1143 648 1037 589 703 c 5
 582 655 l 5
 802 669 l 5
 776 568 l 5
 563 555 l 5
 556 515 l 5
 528 356 491 196 429 99 c 5
 888 96 l 5
 1059 349 l 5
 1142 331 l 5
 1052 0 l 5
 63 0 l 5
EndSplineSet
Colour: ffffff
EndChar

StartChar: yen
Encoding: 165 165 85
Width: 1199
VWidth: 0
Flags: HMW
LayerCount: 3
Fore
SplineSet
63 239 m 1
 91 345 l 1
 390 345 l 1
 410 472 l 1
 103 472 l 1
 131 578 l 1
 395 578 l 1
 242 1126 l 1
 111 1168 l 1
 136 1244 l 1
 603 1244 l 1
 580 1168 l 1
 442 1130 l 1
 574 641 l 1
 869 1126 l 1
 719 1168 l 1
 740 1244 l 1
 1137 1244 l 1
 1115 1168 l 1
 985 1130 l 1
 643 578 l 1
 947 578 l 1
 919 472 l 1
 603 472 l 1
 584 345 l 1
 907 345 l 1
 879 239 l 1
 567 239 l 1
 547 114 l 1
 706 81 l 1
 683 0 l 1
 176 0 l 1
 197 74 l 1
 356 121 l 1
 374 239 l 1
 63 239 l 1
EndSplineSet
Colour: ffffff
EndChar

StartChar: brokenbar
Encoding: 166 166 86
Width: 487
VWidth: 0
Flags: HMW
LayerCount: 3
Fore
SplineSet
61 -350 m 1
 185 431 l 1
 294 419 l 1
 170 -363 l 1
 61 -350 l 1
203 540 m 1
 315 1255 l 1
 424 1244 l 1
 307 528 l 1
 203 540 l 1
EndSplineSet
Colour: ffffff
EndChar

StartChar: dieresis
Encoding: 168 168 87
Width: 643
VWidth: 0
Flags: HMW
LayerCount: 3
Fore
SplineSet
102 1465 m 0
 110 1513 159 1542 200 1542 c 0
 245 1542 279 1511 272 1465 c 0
 264 1415 220 1384 175 1384 c 0
 132 1384 94 1415 102 1465 c 0
287 1255 m 0
370 1465 m 0
 378 1513 426 1542 467 1542 c 0
 512 1542 548 1511 541 1465 c 0
 533 1415 487 1384 442 1384 c 0
 399 1384 362 1415 370 1465 c 0
EndSplineSet
Colour: ffffff
EndChar

StartChar: copyright
Encoding: 169 169 88
Width: 1420
VWidth: 0
Flags: HMW
LayerCount: 3
Fore
SplineSet
74 645 m 4
 74 1026 367 1320 705 1320 c 4
 1100 1320 1348 1033 1348 649 c 4
 1348 292 1062 -15 696 -15 c 4
 330 -15 74 270 74 645 c 4
197 657 m 4
 197 329 408 92 704 92 c 4
 992 92 1226 325 1226 639 c 4
 1226 964 1040 1217 705 1217 c 4
 417 1217 197 961 197 657 c 4
366 644 m 4
 366 896 543 1056 727 1056 c 4
 869 1056 932 993 932 926 c 4
 932 876 895 842 824 837 c 5
 800 894 761 976 687 976 c 4
 586 976 519 876 519 722 c 4
 519 580 595 368 772 368 c 4
 856 368 904 393 944 419 c 5
 965 370 l 5
 920 316 811 266 701 266 c 4
 497 266 366 440 366 644 c 4
EndSplineSet
Colour: ffffff
EndChar

StartChar: guillemotleft
Encoding: 171 171 89
Width: 744
VWidth: 0
Flags: HMW
LayerCount: 3
Fore
SplineSet
69 449 m 5
 71 469 l 5
 394 821 l 5
 429 761 l 5
 216 461 l 5
 333 140 l 5
 270 78 l 5
 69 449 l 5
317 449 m 5
 318 469 l 5
 642 821 l 5
 677 761 l 5
 464 461 l 5
 581 140 l 5
 518 78 l 5
 317 449 l 5
EndSplineSet
Colour: ffffff
EndChar

StartChar: logicalnot
Encoding: 172 172 90
Width: 926
VWidth: 0
Flags: HMW
LayerCount: 3
Fore
SplineSet
75 558 m 1
 103 664 l 1
 848 664 l 1
 800 350 l 1
 691 332 l 1
 727 558 l 1
 75 558 l 1
EndSplineSet
Colour: ffffff
EndChar

StartChar: softhyphen
Encoding: 173 173 91
Width: 600
VWidth: 0
Flags: HMW
LayerCount: 3
Fore
SplineSet
77 406 m 1
 103 522 l 1
 521 581 l 1
 495 466 l 1
 77 406 l 1
EndSplineSet
Colour: ffffff
EndChar

StartChar: micro
Encoding: 181 181 92
Width: 985
VWidth: 0
Flags: HMW
LayerCount: 3
Fore
SplineSet
62 -362 m 1
 76 -313 197.918 229.012 237 497 c 10
 265 689 l 2
 278 781 208 775 134 773 c 9
 143 853 l 17
 186 874 236 886 296 886 c 0
 428 886 443 817 423 693 c 10
 370 345 l 18
 349 208 365 125 469 125 c 3
 563 125 618 172 656 208 c 9
 725 689 l 2
 739 782 668 775 594 773 c 9
 603 853 l 17
 646 874 696 886 756 886 c 0
 888 886 900 817 883 693 c 10
 830 302 l 18
 822.186 244.355 817.126 202.139 817.126 171.37 c 0
 817.126 100 864 90 933 83 c 1
 915 14 l 1
 880 1 828 -18 774 -18 c 0
 673 -20 633 33 658 148 c 1
 646 148 l 1
 590 74 483 -23 362 -23 c 3
 294.755 -23 264 0 233 38 c 1
 233 37 l 1
 226 37 l 1
 226 19 227 -28 221 -86 c 2
 191 -388 l 1
 62 -362 l 1
EndSplineSet
Colour: ffffff
EndChar

StartChar: periodcentered
Encoding: 183 183 93
Width: 402
VWidth: 0
Flags: HMW
LayerCount: 3
Fore
SplineSet
79 504 m 0
 79 568 135 618 199 618 c 0
 265 618 321 568 321 504 c 0
 321 437 265 381 199 381 c 0
 133 381 79 437 79 504 c 0
EndSplineSet
Colour: ffffff
EndChar

StartChar: macron
Encoding: 175 175 94
Width: 657
VWidth: 0
Flags: HMW
LayerCount: 3
Fore
SplineSet
101 1379 m 1
 114 1479 l 1
 556 1479 l 1
 543 1379 l 1
 101 1379 l 1
EndSplineSet
Colour: ffffff
EndChar

StartChar: degree
Encoding: 176 176 95
Width: 525
VWidth: 0
Flags: HMW
LayerCount: 3
Fore
SplineSet
86 1107 m 0
 86 1210 171 1304 279 1304 c 0
 395 1304 450 1237 450 1128 c 0
 450 1013 361 928 255 928 c 0
 153 928 86 990 86 1107 c 0
177 1129 m 0
 177 1068 209 995 273 995 c 0
 327 995 358 1032 358 1105 c 0
 358 1167 325 1237 263 1237 c 0
 204 1237 177 1185 177 1129 c 0
EndSplineSet
Colour: ffffff
EndChar

StartChar: plusminus
Encoding: 177 177 96
Width: 769
VWidth: 0
Flags: HMW
LayerCount: 3
Fore
SplineSet
71 13 m 5
 88 117 l 5
 699 124 l 5
 683 20 l 5
 71 13 l 5
EndSplineSet
Refer: 10 43 N 1 0 -4.47035e-07 1 28 81 2
Colour: ffffff
EndChar

StartChar: acute
Encoding: 180 180 97
Width: 433
VWidth: 0
Flags: HMW
LayerCount: 3
Fore
SplineSet
100 1380 m 1
 223 1705 l 1
 334 1666 l 5
 151 1348 l 1
 100 1380 l 1
EndSplineSet
Colour: ffffff
EndChar

StartChar: cedilla
Encoding: 184 184 98
Width: 379
VWidth: 0
Flags: HMW
LayerCount: 3
Fore
SplineSet
74 -331 m 1
 131 -312 160 -278 160 -248 c 0
 160 -214 122 -172 86 -138 c 1
 184 3 l 1
 258 3 l 1
 205 -76 l 1
 242 -109 294 -160 294 -227 c 0
 294 -306 209 -355 93 -389 c 1
 74 -331 l 1
EndSplineSet
Colour: ffffff
EndChar

StartChar: germandbls
Encoding: 223 223 101
Width: 1067
VWidth: 0
Flags: HMW
LayerCount: 3
Fore
SplineSet
120 768 m 1
 134 836 l 1
 291 872 l 1
 335.904 1105.69 532.358 1320 758 1320 c 0
 922.339 1320 991.851 1211.54 991.851 1071.32 c 0
 991.851 851.101 719 766.385 719 628 c 0
 719 500.421 991.323 411.318 987 224 c 24
 983 71 823 -35 693 -35 c 3
 542 -35 459 23 459 82 c 0
 459 145 502 200 581 208 c 1
 618 95 670 54 733 54 c 3
 794 54 842 88 842 162 c 0
 842 295.679 579 354.417 579 560 c 0
 579 752.089 834.226 807.94 834.226 1014.78 c 0
 834.226 1126.66 783.753 1217.37 687.749 1217.37 c 0
 539.092 1217.37 472.415 1098.24 444 839 c 10
 370 135 l 18
 358 25 335.574 -37.7139 320 -60 c 1
 164 -60 l 1
 180.034 -30.7227 197 -5 207 99 c 2
 273 768 l 1
 120 768 l 1
EndSplineSet
Colour: ffffff
EndChar

StartChar: igrave
Encoding: 236 236 139
Width: 558
VWidth: 0
Flags: HMW
LayerCount: 3
Fore
SplineSet
64 -2 m 1
 82 73 l 1
 205 106 l 9
 305 746 l 17
 175 768 l 1
 185 844 l 1
 459 869 l 1
 479 846 l 1
 363 102 l 17
 489 71 l 1
 472 -2 l 1
 64 -2 l 1
EndSplineSet
Refer: 52 96 N 1 0 0 1 169 -314 2
Colour: ffffff
EndChar

StartChar: iacute
Encoding: 237 237 140
Width: 634
VWidth: 0
Flags: HMW
LayerCount: 3
Fore
SplineSet
64 -2 m 1
 82 73 l 1
 205 106 l 9
 305 746 l 17
 175 768 l 1
 185 844 l 1
 459 869 l 1
 479 846 l 1
 363 102 l 17
 489 71 l 1
 472 -2 l 1
 64 -2 l 1
EndSplineSet
Refer: 97 180 N 1 0 0 1 259 -333 2
Colour: ffffff
EndChar

StartChar: icircumflex
Encoding: 238 238 141
Width: 738
VWidth: 0
Flags: HMW
LayerCount: 3
Fore
SplineSet
64 -2 m 1
 82 73 l 1
 205 106 l 9
 305 746 l 17
 175 768 l 1
 185 844 l 1
 459 869 l 1
 479 846 l 1
 363 102 l 17
 489 71 l 1
 472 -2 l 1
 64 -2 l 1
EndSplineSet
Refer: 211 710 N 1 0 0 1 197 -342 2
Colour: ffffff
EndChar

StartChar: idieresis
Encoding: 239 239 142
Width: 624
VWidth: 0
Flags: HMW
LayerCount: 3
Fore
SplineSet
128 -2 m 1
 146 73 l 1
 269 106 l 9
 369 746 l 17
 239 768 l 1
 249 844 l 1
 523 869 l 1
 543 846 l 1
 427 102 l 17
 553 71 l 1
 536 -2 l 1
 128 -2 l 1
EndSplineSet
Refer: 87 168 N 1 0 0 1 -15 -369 2
Colour: ffffff
EndChar

StartChar: zero
Encoding: 48 48 155
Width: 2048
VWidth: 1651
LayerCount: 3
Back
SplineSet
67 586 m 0
 67 1017 271 1203 492 1203 c 0
 732 1203 900 1020 900 586 c 0
 900 110 685 -27 487 -27 c 0
 263 -27 67 94 67 586 c 0
283 583 m 0
 283 236 321 70 492 70 c 0
 639 70 683 235 683 586 c 0
 683 928 644 1098 485 1098 c 0
 323 1098 283 926 283 583 c 0
EndSplineSet
EndChar

StartChar: one
Encoding: 49 49 156
Width: 2048
VWidth: 1651
LayerCount: 3
Back
SplineSet
40 0 m 5
 47 74 l 5
 311 121 l 5
 311 1031 l 5
 61 1031 l 5
 67 1108 l 5
 488 1185 l 5
 515 1185 l 5
 515 114 l 5
 777 83 l 5
 767 0 l 5
 40 0 l 5
EndSplineSet
EndChar

StartChar: two
Encoding: 50 50 157
Width: 2048
VWidth: 1651
LayerCount: 3
Back
SplineSet
40 102 m 1
 275 299 l 2
 454 448 603 618 603 820 c 0
 603 958 577 1105 415 1105 c 0
 331 1105 260 1052 235 987 c 1
 198 726 l 1
 121 736 l 1
 94 1020 l 1
 152 1120 340 1209 483 1209 c 0
 701 1209 826 1084 826 866 c 0
 826 583 513 343 321 205 c 2
 246 151 l 1
 700 151 l 1
 804 368 l 1
 874 358 l 1
 826 0 l 1
 46 0 l 1
 40 102 l 1
EndSplineSet
EndChar

StartChar: three
Encoding: 51 51 158
Width: 2048
VWidth: 1651
LayerCount: 3
Back
SplineSet
37 74 m 1xe8
 88 373 l 1
 173 360 l 1
 186 157 l 1
 209 115 279 72 349 72 c 0
 505 72 597 148 597 297 c 0xe8
 597 423 463 545 266 545 c 1
 256 611 l 1
 338 637 556 742 556 918 c 0
 556 1018 495 1124 371 1124 c 0
 317 1124 263 1101 227 1068 c 1
 181 812 l 1
 96 823 l 1
 78 1090 l 1
 122 1138 284 1213 429 1213 c 0
 619 1213 768 1125 768 960 c 0xf0
 768 798 604 693 483 649 c 1
 483 637 l 1
 661 613 813 522 813 357 c 0
 813 139 592 -30 328 -30 c 0
 194 -30 65 29 37 74 c 1xe8
EndSplineSet
EndChar

StartChar: seven
Encoding: 55 55 159
Width: 2048
VWidth: 1651
LayerCount: 3
Back
SplineSet
5 809 m 1
 29 1182 l 1
 817 1182 l 1
 817 1130 l 1
 380 -33 l 1
 173 -11 l 1
 662 1015 l 1
 149 1015 l 1
 74 796 l 1
 5 809 l 1
EndSplineSet
EndChar

StartChar: four
Encoding: 52 52 160
Width: 2048
VWidth: 1651
LayerCount: 3
Back
SplineSet
-21 431 m 1
 621 1194 l 1
 686 1176 l 1
 680 1057 676 864 676 683 c 2
 676 479 l 1
 931 479 l 1
 915 346 l 1
 676 346 l 1
 676 105 l 1
 865 73 l 1
 855 0 l 1
 274 0 l 1
 281 66 l 1
 496 111 l 1
 496 349 l 1
 2 349 l 1
 -21 431 l 1
164 479 m 1
 493 479 l 1
 493 912 l 1
 164 479 l 1
EndSplineSet
EndChar

StartChar: five
Encoding: 53 53 161
Width: 2048
VWidth: 1651
LayerCount: 3
Back
SplineSet
-19 74 m 1
 7 387 l 1
 92 368 l 1
 113 155 l 1
 153 93 222 67 304 67 c 0
 431 67 513 156 513 290 c 0
 513 494 357 582 57 602 c 1
 176 1169 l 1
 645 1198 l 1
 619 1016 l 1
 232 1000 l 1
 196 762 l 1
 582 740 689 564 689 354 c 0
 689 156 505 -25 260 -25 c 0
 151 -25 55 -3 -19 74 c 1
EndSplineSet
EndChar

StartChar: eight
Encoding: 56 56 162
Width: 2048
VWidth: 1651
LayerCount: 3
Back
SplineSet
54 280 m 0xe4
 54 393 127 482 287 575 c 1
 287 584 l 1
 191 648 100 732 100 879 c 0
 100 1047 257 1201 451 1201 c 0
 641 1201 770 1077 770 926 c 0xd8
 770 809 680 679 567 639 c 1
 564 629 l 1
 712 521 798 449 798 300 c 0
 798 116 662 -27 396 -27 c 0
 212 -27 54 89 54 280 c 0xe4
243 304 m 0xe4
 243 142 352 61 461 61 c 0
 556 61 628 115 628 236 c 0
 628 349 473 459 354 533 c 1
 288 474 243 442 243 304 c 0xe4
266 955 m 0xd8
 266 862 352 761 497 678 c 1
 571 721 601 771 601 890 c 0
 601 1031 531 1124 426 1124 c 0
 312 1124 266 1035 266 955 c 0xd8
EndSplineSet
EndChar

StartChar: six
Encoding: 54 54 163
Width: 2048
VWidth: 1651
LayerCount: 3
Back
SplineSet
59 421 m 0
 59 756 352 1112 666 1214 c 1
 703 1155 l 1
 442 1036 312 807 272 609 c 1
 283 609 l 1
 327 659 410 709 518 709 c 0
 712 709 849 589 849 370 c 0
 849 133 659 -21 442 -21 c 0
 171 -21 59 187 59 421 c 0
262 406 m 0
 262 235 327 61 449 61 c 0
 611 61 644 174 644 328 c 0
 644 463 587 606 445 606 c 0
 371 606 293 563 269 527 c 1
 266 494 262 440 262 406 c 0
EndSplineSet
EndChar

StartChar: nine
Encoding: 57 57 164
Width: 2048
VWidth: 1651
LayerCount: 3
Back
SplineSet
40 802 m 0
 40 1046 241 1211 432 1211 c 0
 695 1211 813 998 813 764 c 0
 813 365 574 39 198 -27 c 1
 175 47 l 1
 503 144 578 331 597 575 c 1
 584 575 l 1
 518 502 432 466 340 466 c 0
 149 466 40 585 40 802 c 0
240 845 m 0
 240 710 287 575 429 575 c 0
 499 575 569 612 600 662 c 1
 608 708 609 766 609 806 c 0
 609 970 542 1130 426 1130 c 0
 278 1130 240 1023 240 845 c 0
EndSplineSet
EndChar

StartChar: zero
Encoding: 48 48 165
Width: 1011
VWidth: 1651
Flags: HMW
LayerCount: 3
Fore
SplineSet
71 383 m 0
 71 885 339 1203 612 1203 c 0
 810 1203 940 1068 940 779 c 0
 940 245 653 -27 413 -27 c 0
 226 -27 71 68 71 383 c 0
276 335 m 0
 276 184 319 70 433 70 c 0
 619 70 735 490 735 835 c 0
 735 984 694 1098 589 1098 c 0
 386 1098 276 680 276 335 c 0
EndSplineSet
Substitution2: "'onum' Oldstyle Figures lookup 1-1" zero.osf
Colour: ffffff
EndChar

StartChar: one
Encoding: 49 49 166
Width: 877
VWidth: 1651
Flags: HMW
LayerCount: 3
Fore
SplineSet
63 0 m 5
 82 74 l 5
 353 121 l 5
 497 1031 l 5
 247 1031 l 5
 265 1108 l 5
 699 1185 l 5
 726 1185 l 5
 556 114 l 5
 813 83 l 5
 790 0 l 5
 63 0 l 5
EndSplineSet
Substitution2: "'onum' Oldstyle Figures lookup 1-1" one.osf
Colour: ffffff
EndChar

StartChar: two
Encoding: 50 50 167
Width: 1054
VWidth: 1651
Flags: HMW
LayerCount: 3
Fore
SplineSet
64 0 m 1
 74 102 l 1
 340 299 l 2
 572 470 761 637 761 927 c 0
 761 1025 728 1105 608 1105 c 0
 524 1105 444 1052 409 987 c 1
 331 726 l 1
 256 736 l 1
 274 1020 l 1
 348 1120 549 1209 692 1209 c 0
 883 1209 988 1113 988 943 c 0
 988 597 599 352 371 205 c 6
 288 151 l 1
 742 151 l 1
 880 368 l 1
 949 358 l 1
 844 0 l 1
 64 0 l 1
EndSplineSet
Substitution2: "'onum' Oldstyle Figures lookup 1-1" two.osf
Colour: ffffff
EndChar

StartChar: three
Encoding: 51 51 168
Width: 1002
VWidth: 1651
Flags: HMW
LayerCount: 3
Fore
SplineSet
63 74 m 1
 161 373 l 1
 244 360 l 1
 225 157 l 1
 241 115 305 72 375 72 c 0
 531 72 661 137 661 305 c 0
 661 420 549 545 367 545 c 1
 367 611 l 1
 459 639 719 733 719 937 c 0
 719 1024 671 1124 563 1124 c 0
 509 1124 451 1101 410 1068 c 1
 324 812 l 1
 241 823 l 1
 265 1090 l 1
 317 1138 490 1213 635 1213 c 0
 809 1213 938 1119 938 980 c 0
 938 788 734 695 600 649 c 1
 598 637 l 1
 758 615 887 516 887 376 c 0
 887 127 603 -30 338 -30 c 0
 204 -30 84 29 63 74 c 1
EndSplineSet
Substitution2: "'onum' Oldstyle Figures lookup 1-1" three.osf
Colour: ffffff
EndChar

StartChar: four
Encoding: 52 52 169
Width: 1091
VWidth: 1651
Flags: HMW
LayerCount: 3
Fore
SplineSet
65 431 m 1
 828 1194 l 1
 890 1176 l 1
 865 1057 831 864 802 683 c 2
 770 479 l 1
 1025 479 l 1
 988 346 l 1
 749 346 l 1
 710 105 l 1
 894 73 l 1
 873 0 l 1
 292 0 l 1
 309 66 l 1
 531 111 l 1
 569 349 l 1
 75 349 l 1
 65 431 l 1
258 479 m 1
 587 479 l 1
 655 912 l 1
 258 479 l 1
EndSplineSet
Substitution2: "'onum' Oldstyle Figures lookup 1-1" four.osf
Colour: ffffff
EndChar

StartChar: five
Encoding: 53 53 170
Width: 968
VWidth: 1651
Flags: HMW
LayerCount: 3
Fore
SplineSet
63 74 m 1
 139 387 l 1
 221 368 l 1
 208 155 l 1
 238 93 303 67 385 67 c 0
 526 67 634 158 634 324 c 0
 634 490 492 584 223 602 c 1
 431 1169 l 1
 905 1198 l 1
 850 1016 l 1
 461 1000 l 1
 387 762 l 1
 719 743 832 588 832 416 c 0
 832 159 599 -25 326 -25 c 0
 217 -25 125 -3 63 74 c 1
EndSplineSet
Substitution2: "'onum' Oldstyle Figures lookup 1-1" five.osf
Colour: ffffff
EndChar

StartChar: six
Encoding: 54 54 171
Width: 934
VWidth: 1651
Flags: HMW
LayerCount: 3
Fore
SplineSet
68 345 m 0
 68 732 458 1106 807 1214 c 1
 835 1155 l 1
 555 1036 388 807 317 609 c 1
 328 609 l 1
 380 659 471 709 579 709 c 0
 750 709 863 586 863 413 c 0
 863 128 622 -21 388 -21 c 0
 158 -21 68 138 68 345 c 0
267 313 m 0
 267 168 311 61 408 61 c 0
 583 61 651 193 651 380 c 0
 651 490 607 606 490 606 c 0
 416 606 331 563 301 527 c 1
 280 477 267 405 267 313 c 0
EndSplineSet
Substitution2: "'onum' Oldstyle Figures lookup 1-1" six.osf
Colour: ffffff
EndChar

StartChar: seven
Encoding: 55 55 172
Width: 1001
VWidth: 1651
Flags: HMW
LayerCount: 3
Fore
SplineSet
67 809 m 1
 150 1182 l 1
 938 1182 l 1
 930 1130 l 1
 329 -33 l 5
 125 -11 l 5
 757 1015 l 1
 244 1015 l 1
 134 796 l 1
 67 809 l 1
EndSplineSet
Substitution2: "'onum' Oldstyle Figures lookup 1-1" seven.osf
Colour: ffffff
EndChar

StartChar: eight
Encoding: 56 56 173
Width: 954
VWidth: 1651
Flags: HMW
LayerCount: 3
Fore
SplineSet
64 229 m 0
 64 390 159 474 348 575 c 1
 349 584 l 1
 274 640 205 722 205 838 c 0
 205 1043 405 1201 611 1201 c 0
 784 1201 890 1099 890 967 c 0
 890 822 765 682 638 639 c 1
 633 629 l 1
 748 534 830 437 830 322 c 0
 830 98 639 -27 362 -27 c 0
 196 -27 64 68 64 229 c 0
258 273 m 0
 258 150 348 61 440 61 c 0
 532 61 637 123 637 256 c 0
 637 362 509 463 408 533 c 1
 336 476 258 424 258 273 c 0
385 930 m 0
 385 844 454 754 574 678 c 1
 662 725 717 793 717 939 c 0
 717 1046 663 1124 574 1124 c 0
 456 1124 385 1026 385 930 c 0
EndSplineSet
Substitution2: "'onum' Oldstyle Figures lookup 1-1" eight.osf
Colour: ffffff
EndChar

StartChar: nine
Encoding: 57 57 174
Width: 913
VWidth: 1651
Flags: HMW
LayerCount: 3
Fore
SplineSet
74 737 m 0
 74 1033 325 1211 538 1211 c 0
 762 1211 844 1047 844 856 c 0
 844 432 501 40 108 -27 c 1
 97 47 l 1
 363 123 542 345 602 575 c 1
 589 575 l 1
 511 502 420 466 328 466 c 0
 164 466 74 574 74 737 c 0
281 766 m 0
 281 662 320 575 434 575 c 0
 504 575 580 612 619 662 c 1
 644 738 658 812 658 898 c 0
 658 1025 613 1130 519 1130 c 0
 359 1130 281 973 281 766 c 0
EndSplineSet
Substitution2: "'onum' Oldstyle Figures lookup 1-1" nine.osf
Colour: ffffff
EndChar

StartChar: cent
Encoding: 162 162 177
Width: 752
VWidth: 0
Flags: HMW
LayerCount: 3
Fore
SplineSet
435 863 m 1
 444 1114 l 1
 592 1131 l 1
 526 863 l 1
 435 863 l 1
44 348 m 0
 44 672.414 295 908 534 908 c 3
 652 908 720 845 720 751 c 27
 720 688 660 653 591 647 c 1
 563 731 538 811 451 811 c 0
 281 811 217 577.922 217 420 c 0
 217 210.285 279 106 418 106 c 0
 502 106 581 148 631 179 c 1
 655 118 l 1
 585 39 458 -24 347 -24 c 3
 169 -24 44 98.1328 44 348 c 0
251 -266 m 1
 319 0 l 1
 408 0 l 1
 402 -250 l 1
 251 -266 l 1
EndSplineSet
Colour: ffffff
EndChar

StartChar: currency
Encoding: 164 164 178
Width: 829
VWidth: 0
Flags: HMW
LayerCount: 3
Fore
SplineSet
68 746 m 5
 152 827 l 5
 261 709 l 5
 304 745 366 768 415 768 c 4
 469 768 532 748 572 718 c 5
 683 830 l 5
 757 742 l 5
 642 636 l 5
 663 599 678 538 678 491 c 4
 678 441 662 379 635 342 c 5
 760 223 l 5
 675 143 l 5
 562 264 l 5
 516 236 454 217 407 217 c 4
 367 217 313 233 273 257 c 5
 165 136 l 5
 81 221 l 5
 196 332 l 5
 169 372 151 435 151 488 c 4
 151 534 167 592 190 628 c 5
 68 746 l 5
256 494 m 4
 256 386 320 313 412 313 c 4
 508 313 572 383 572 487 c 4
 572 598 508 670 411 670 c 4
 319 670 256 599 256 494 c 4
EndSplineSet
Colour: ffffff
EndChar

StartChar: section
Encoding: 167 167 179
Width: 1046
VWidth: 0
Flags: HMW
LayerCount: 3
Fore
SplineSet
61 -236 m 1
 116 31 l 1
 218 16 l 1
 225 -172 l 1
 252 -229 321 -282 414 -282 c 0
 519 -282 662 -219 685 -71 c 0
 727 195 90 191 222 606 c 1
 547 406 l 2
 704 310 916 230 879 -4 c 0
 843 -234 604 -383 376 -383 c 0
 232 -383 112 -315 61 -236 c 1
271 916 m 0
 307 1143 517 1269 714 1269 c 0
 822 1269 913 1235 982 1169 c 1
 981 1161 915 887 915 887 c 1
 818 899 l 1
 822 1090 l 1
 810 1126 749 1185 669 1185 c 0
 569 1185 476 1126 455 995 c 0
 408 698 1061 728 926 300 c 1
 556 527 l 2
 411 616 237 704 271 916 c 0
EndSplineSet
Colour: ffffff
EndChar

StartChar: ordfeminine
Encoding: 170 170 180
Width: 801
VWidth: 0
Flags: HMW
LayerCount: 3
Fore
SplineSet
82 655 m 0
 82 797 208 932 492 932 c 1
 497 966 l 2
 514 1074 522 1170 416 1170 c 0
 346 1170 325 1114 291 978 c 1
 216 970 178 1004 178 1066 c 0
 178 1168 374 1254 488 1254 c 0
 636 1254 677 1164 655 1008 c 2
 617 748 l 2
 607 674 622 648 695 635 c 2
 736 628 l 1
 715 566 l 1
 668 529 642 520 592 520 c 0
 484 520 450 583 459 639 c 1
 450 639 l 1
 421 597 359 515 224 515 c 0
 144 515 82 574 82 655 c 0
250 701 m 0
 250 665 269 631 323 631 c 0
 384 631 423 679 456 709 c 1
 482 874 l 1
 321 846 250 794 250 701 c 0
EndSplineSet
Colour: ffffff
EndChar

StartChar: registered
Encoding: 174 174 181
Width: 1114
VWidth: 0
Flags: HMW
LayerCount: 3
Fore
SplineSet
75 1022 m 0
 75 1344 286 1522 554 1522 c 0
 830 1522 1049 1352 1049 1026 c 0
 1049 716 826 540 544 540 c 0
 282 540 75 724 75 1022 c 0
163 1036 m 0
 163 776 334 616 552 616 c 0
 780 616 961 784 961 1016 c 0
 961 1280 780 1446 554 1446 c 0
 332 1446 163 1300 163 1036 c 0
275 777 m 1
 282 825 l 1
 362 853 l 1
 362 1248 l 1
 281 1266 l 1
 286 1319 l 1
 352 1329 464 1341 531 1341 c 0
 684 1341 776 1305 776 1194 c 0
 776 1124 718 1051 651 1028 c 1
 650 1026 l 5
 728 935 l 2
 778 877 797 862 847 839 c 2
 863 832 l 1
 853 777 l 1
 834 771 803 766 771 766 c 0
 680 766 638 823 588 918 c 2
 545 1001 l 1
 489 1001 l 1
 489 857 l 1
 563 830 l 1
 558 777 l 1
 275 777 l 1
489 1068 m 1
 568 1068 l 1
 608 1085 639 1117 639 1170 c 0
 639 1233 596 1272 523 1272 c 0
 505 1272 492 1270 489 1270 c 1
 489 1068 l 1
EndSplineSet
Colour: ffffff
EndChar

StartChar: two.superior
Encoding: 178 178 182
Width: 768
VWidth: 0
Flags: HMW
LayerCount: 3
Fore
SplineSet
69 531 m 1
 94 638 l 1
 268 761 l 1
 405 860 495 929 495 1057 c 0
 495 1110 476 1153 405 1153 c 0
 356 1153 311 1127 291 1095 c 1
 249 966 l 1
 182 971 l 1
 194 1141 l 1
 247 1218 384 1257 485 1257 c 0
 623 1257 699 1201 699 1104 c 0
 699 922 509 805 326 696 c 2
 252 652 l 1
 522 652 l 1
 625 805 l 1
 679 784 l 1
 620 531 l 1
 69 531 l 1
EndSplineSet
Colour: ffffff
EndChar

StartChar: three.superior
Encoding: 179 179 183
Width: 741
VWidth: 0
Flags: HMW
LayerCount: 3
Fore
SplineSet
69 563 m 1
 131 762 l 1
 204 754 l 1
 191 619 l 1
 206 598 241 579 284 579 c 0
 378 579 458 639 458 733 c 0
 458 798 386 849 273 849 c 1
 267 908 l 1
 322 924 478 975 478 1092 c 0
 478 1142 451 1189 388 1189 c 0
 357 1189 326 1186 302 1167 c 1
 253 1010 l 1
 178 1016 l 1
 193 1187 l 1
 231 1231 353 1279 456 1279 c 0
 581 1279 673 1231 673 1140 c 0
 673 1019 565 955 462 927 c 1
 461 920 l 1
 589 907 652 852 652 767 c 0
 652 604 460 495 266 495 c 0
 171 495 82 521 69 563 c 1
EndSplineSet
Colour: ffffff
EndChar

StartChar: paragraph
Encoding: 182 182 184
Width: 1396
VWidth: 0
Flags: HMW
LayerCount: 3
Fore
SplineSet
74 785 m 0
 74 1072 329 1245 589 1245 c 2
 935 1245 l 1
 738 0 l 1
 332 0 l 1
 351 74 l 1
 599 121 l 1
 762 1152 l 1
 722 1153 666 1154 656 1154 c 0
 423 1154 285 1040 285 817 c 0
 285 676 364 546 553 546 c 9
 520 448 l 1
 282 448 74 551 74 785 c 0
817 0 m 1
 1014 1245 l 1
 1334 1245 l 1
 1313 1168 l 1
 1137 1130 l 1
 976 114 l 1
 1152 80 l 1
 1129 0 l 1
 817 0 l 1
EndSplineSet
Colour: ffffff
EndChar

StartChar: one.superior
Encoding: 185 185 185
Width: 639
VWidth: 0
Flags: HMW
LayerCount: 3
Fore
SplineSet
69 531 m 5
 85 605 l 5
 242 630 l 5
 320 1122 l 5
 175 1122 l 5
 191 1199 l 5
 500 1245 l 5
 519 1245 l 5
 421 627 l 5
 571 614 l 5
 552 531 l 5
 69 531 l 5
EndSplineSet
Colour: ffffff
EndChar

StartChar: ordmasculine
Encoding: 186 186 186
Width: 866
VWidth: 0
Flags: HMW
LayerCount: 3
Fore
SplineSet
78 803 m 0
 78 1090 309 1258 514 1258 c 0
 696 1258 798 1144 798 969 c 0
 798 697 595 514 376 514 c 0
 179 514 78 635 78 803 c 0
254 811 m 0
 254 692 281 594 407 594 c 0
 564 594 620 784 620 948 c 0
 620 1068 585 1175 465 1175 c 0
 302 1175 254 984 254 811 c 0
EndSplineSet
Colour: ffffff
EndChar

StartChar: onequarter
Encoding: 188 188 187
Width: 1437
VWidth: 0
Flags: HMW
LayerCount: 3
Fore
SplineSet
64 531 m 1
 80 605 l 1
 237 630 l 1
 315 1122 l 1
 170 1122 l 1
 186 1199 l 1
 495 1245 l 5
 514 1245 l 1
 416 627 l 1
 566 614 l 1
 547 531 l 1
 64 531 l 1
189 -10 m 1
 691 588 l 1
 1181 1210 l 1
 1356 1207 l 1
 1349 1178 l 1
 856 591 l 1
 386 -32 l 1
 189 -10 l 1
766 178 m 1
 768 270 l 1
 1252 737 l 1
 1307 726 l 1
 1291 655 1268 539 1251 430 c 2
 1226 272 l 1
 1374 272 l 1
 1350 175 l 1
 1211 175 l 1
 1196 83 l 1
 1314 65 l 1
 1298 0 l 1
 884 0 l 1
 897 58 l 1
 1038 85 l 1
 1053 178 l 1
 766 178 l 1
875 272 m 1
 1065 272 l 1
 1102 508 l 1
 875 272 l 1
EndSplineSet
Colour: ffffff
EndChar

StartChar: onehalf
Encoding: 189 189 188
Width: 1516
VWidth: 0
Flags: HMW
LayerCount: 3
Fore
SplineSet
64 531 m 1
 80 605 l 1
 237 630 l 1
 315 1122 l 1
 170 1122 l 1
 186 1199 l 1
 495 1245 l 1
 514 1245 l 1
 416 627 l 1
 566 614 l 1
 547 531 l 1
 64 531 l 1
169 -10 m 1
 671 588 l 1
 1161 1210 l 1
 1336 1207 l 1
 1329 1178 l 1
 836 591 l 1
 366 -32 l 1
 169 -10 l 1
816 2 m 1
 841 109 l 1
 1016 232 l 1
 1153 331 1242 400 1242 528 c 0
 1242 581 1223 624 1152 624 c 0
 1103 624 1059 598 1039 566 c 1
 996 437 l 1
 929 442 l 1
 941 612 l 1
 994 689 1131 728 1232 728 c 0
 1370 728 1446 672 1446 575 c 0
 1446 393 1256 276 1073 167 c 2
 999 123 l 1
 1269 123 l 1
 1373 276 l 1
 1426 255 l 1
 1367 2 l 1
 816 2 l 1
EndSplineSet
Colour: ffffff
EndChar

StartChar: threequarters
Encoding: 190 190 189
Width: 1416
VWidth: 0
Flags: HMW
LayerCount: 3
Fore
SplineSet
66 546 m 1
 128 745 l 1
 201 737 l 1
 188 602 l 1
 203 581 238 562 281 562 c 0
 375 562 455 622 455 716 c 0
 455 781 383 832 270 832 c 1
 264 891 l 1
 319 907 475 958 475 1075 c 0
 475 1125 448 1172 385 1172 c 0
 354 1172 323 1169 299 1150 c 1
 250 993 l 1
 175 999 l 1
 190 1170 l 1
 228 1214 350 1262 453 1262 c 0
 578 1262 670 1214 670 1123 c 0
 670 1002 562 938 459 910 c 1
 458 903 l 1
 586 890 649 835 649 750 c 0
 649 587 457 478 263 478 c 0
 168 478 79 504 66 546 c 1
182 -10 m 1
 684 588 l 1
 1173 1210 l 1
 1349 1207 l 1
 1342 1178 l 1
 848 591 l 1
 378 -32 l 1
 182 -10 l 1
745 178 m 1
 746 270 l 1
 1230 737 l 1
 1286 726 l 1
 1270 655 1247 539 1230 430 c 2
 1205 272 l 1
 1353 272 l 1
 1328 175 l 1
 1189 175 l 1
 1175 83 l 1
 1293 65 l 1
 1277 0 l 1
 863 0 l 1
 876 58 l 1
 1017 85 l 1
 1032 178 l 1
 745 178 l 1
854 272 m 1
 1044 272 l 1
 1081 508 l 1
 854 272 l 1
EndSplineSet
Colour: ffffff
EndChar

StartChar: dotaccent
Encoding: 729 729 190
Width: 444
VWidth: 0
Flags: HMW
LayerCount: 3
Fore
SplineSet
101 1479 m 0
 101 1543 158 1593 220 1593 c 0
 286 1593 343 1542 343 1478 c 0
 343 1411 286 1355 220 1355 c 0
 154 1355 101 1412 101 1479 c 0
EndSplineSet
Colour: ffffff
EndChar

StartChar: ring
Encoding: 730 730 191
Width: 549
VWidth: 0
Flags: HMW
LayerCount: 3
Fore
SplineSet
101 1527 m 0
 101 1619 188 1699 281 1699 c 0
 377 1699 449 1629 449 1536 c 0
 449 1446 370 1361 268 1361 c 0
 176 1361 101 1425 101 1527 c 0
191 1538 m 0
 191 1477 216 1416 280 1416 c 0
 334 1416 360 1451 360 1524 c 0
 360 1586 332 1645 270 1645 c 0
 211 1645 191 1594 191 1538 c 0
EndSplineSet
Colour: ffffff
EndChar

StartChar: tilde
Encoding: 732 732 192
Width: 666
VWidth: 0
Flags: HMW
LayerCount: 3
Fore
SplineSet
100 1379 m 2
 100 1379 140 1533 236 1521 c 2
 462 1492 l 2
 487 1489 518 1532 518 1532 c 1
 567 1530 l 2
 567 1530 520 1374 423 1387 c 2
 198 1419 l 2
 170 1423 139 1370 139 1370 c 1
 100 1379 l 2
EndSplineSet
Colour: ffffff
EndChar

StartChar: quoteright
Encoding: 8217 8217 193
Width: 470
VWidth: 0
Flags: HMW
LayerCount: 3
Fore
SplineSet
81 819 m 1
 212 853 262 928 262 992 c 0
 262 1048 217 1100 147 1100 c 0
 137 1100 127 1098 117 1097 c 1
 109 1118 102 1137 102 1160 c 0
 102 1240 175 1281 225 1281 c 0
 295 1281 400 1224 400 1073 c 0
 400 980 367 820 104 750 c 1
 81 819 l 1
EndSplineSet
Colour: ffffff
EndChar

StartChar: quoteleft
Encoding: 8216 8216 194
Width: 467
VWidth: 0
Flags: HMW
LayerCount: 3
Fore
SplineSet
79 961 m 0
 79 1054 112 1214 375 1284 c 1
 398 1215 l 1
 267 1181 216 1105 216 1041 c 0
 216 985 262 934 332 934 c 0
 342 934 351 936 361 937 c 1
 369 916 377 898 377 875 c 4
 377 795 304 753 254 753 c 0
 184 753 79 810 79 961 c 0
EndSplineSet
Colour: ffffff
EndChar

StartChar: quotesinglbase
Encoding: 8218 8218 195
Width: 477
VWidth: 0
Flags: HMW
LayerCount: 3
Fore
SplineSet
75 -244 m 1
 206 -210 257 -134 257 -70 c 0
 257 -14 211 36 141 36 c 0
 131 36 121 35 111 34 c 1
 103 55 97 74 97 97 c 0
 97 177 169 218 219 218 c 0
 289 218 393 161 393 10 c 0
 393 -83 361 -243 98 -313 c 1
 75 -244 l 1
EndSplineSet
Colour: ffffff
EndChar

StartChar: quotedblleft
Encoding: 8220 8220 196
Width: 782
VWidth: 0
Flags: HMW
LayerCount: 3
Fore
SplineSet
79 964 m 0
 79 1057 113 1217 376 1287 c 1
 397 1219 l 1
 266 1185 216 1109 216 1045 c 0
 216 989 263 938 333 938 c 0
 343 938 353 939 363 940 c 1
 371 919 377 901 377 878 c 0
 377 798 305 756 255 756 c 0
 185 756 79 813 79 964 c 0
394 964 m 0
 394 1057 428 1217 691 1287 c 1
 713 1219 l 1
 582 1185 532 1109 532 1045 c 0
 532 989 578 938 648 938 c 0
 658 938 667 939 677 940 c 1
 685 919 691 901 691 878 c 0
 691 798 619 756 569 756 c 0
 499 756 394 813 394 964 c 0
EndSplineSet
Colour: ffffff
EndChar

StartChar: quotedblright
Encoding: 8221 8221 197
Width: 787
VWidth: 0
Flags: HMW
LayerCount: 3
Fore
SplineSet
81 824 m 1
 212 858 262 934 262 998 c 0
 262 1054 217 1104 147 1104 c 0
 137 1104 127 1104 117 1103 c 1
 109 1124 102 1143 102 1166 c 0
 102 1246 175 1286 225 1286 c 0
 295 1286 400 1229 400 1078 c 0
 400 985 367 825 104 755 c 1
 81 824 l 1
399 824 m 1
 530 858 580 934 580 998 c 0
 580 1054 534 1104 464 1104 c 0
 454 1104 444 1104 434 1103 c 1
 426 1124 419 1143 419 1166 c 0
 419 1246 492 1286 542 1286 c 0
 612 1286 717 1229 717 1078 c 0
 717 985 684 825 421 755 c 1
 399 824 l 1
EndSplineSet
Colour: ffffff
EndChar

StartChar: thorn
Encoding: 254 254 198
Width: 1062
VWidth: 0
Flags: HMW
LayerCount: 3
Fore
SplineSet
62 -365 m 1
 82 -291 l 1
 202 -258 l 1
 409 1126 l 1
 275 1149 l 1
 287 1225 l 1
 568 1250 l 1
 590 1227 l 1
 529 847 l 1
 500 722 l 1
 510 722 l 1
 552 801 665 890 756 890 c 0
 888 890 993 733 993 532 c 0
 993 185 756 -18 518 -18 c 0
 492 -18 443 -17 425 -7 c 1
 447 107 l 1
 467 97 514 89 534 89 c 0
 636 89 818 111 818 486 c 0
 818 651 754 746 686 746 c 0
 576 746 502 662 502 662 c 1
 361 -263 l 1
 516 -294 l 1
 498 -365 l 1
 62 -365 l 1
EndSplineSet
Colour: ffffff
EndChar

StartChar: Thorn
Encoding: 222 222 199
Width: 1234
VWidth: 0
Flags: HMW
LayerCount: 3
Fore
SplineSet
63 -1 m 1
 85 73 l 1
 260 119 l 1
 420 1126 l 1
 244 1168 l 1
 267 1244 l 1
 810 1244 l 1
 788 1168 l 1
 611 1130 l 1
 594 1020 l 1
 634 1021 678 1024 718 1024 c 0
 956 1024 1168 934 1168 702 c 0
 1168 415 914 260 654 260 c 0
 618 260 577 262 538 266 c 1
 535 351 l 1
 789 337 954 415 954 659 c 0
 954 797 874 926 685 926 c 0
 645 926 578 919 578 919 c 1
 451 121 l 1
 682 83 l 1
 656 -1 l 1
 63 -1 l 1
EndSplineSet
Colour: ffffff
EndChar

StartChar: eth
Encoding: 240 240 200
Width: 966
VWidth: 0
Flags: HMW
LayerCount: 3
Fore
SplineSet
67 340 m 4
 67 690 310 948 547 948 c 4
 587 948 671 933 689 857 c 5
 696 859 l 5
 691 895 674 985 651 1078 c 5
 417 1031 l 5
 439 1106 l 5
 632 1146 l 5
 613 1210 592 1267 569 1302 c 5
 686 1302 l 5
 716 1271 743 1227 768 1174 c 5
 902 1201 l 5
 880 1124 l 5
 796 1107 l 5
 849 964 876 778 876 598 c 4
 876 204 673 -27 395 -27 c 4
 161 -27 67 141 67 340 c 4
251 380 m 4
 251 194 320 70 433 70 c 4
 604 70 696 263 696 510 c 4
 696 694 617 853 519 856 c 5
 344 856 251 635 251 380 c 4
EndSplineSet
Colour: ffffff
EndChar

StartChar: Eth
Encoding: 208 208 201
Width: 1513
VWidth: 0
Flags: HMW
LayerCount: 3
Fore
SplineSet
63 0 m 1
 89 74 l 1
 269 129 l 1
 339 569 l 1
 157 555 l 1
 182 647 l 1
 354 660 l 1
 424 1104 l 1
 257 1134 l 1
 278 1211 l 1
 480 1242 654 1260 799 1260 c 0
 1289 1260 1447 997 1447 735 c 0
 1447 321 1103 0 576 0 c 2
 63 0 l 1
456 104 m 1
 668 104 l 2
 1027 104 1223 363 1223 689 c 0
 1223 943 1071 1157 745 1157 c 0
 705 1157 663 1155 622 1151 c 1
 546 672 l 1
 808 693 l 1
 781 602 l 1
 532 581 l 1
 456 104 l 1
EndSplineSet
Colour: ffffff
EndChar

StartChar: ae
Encoding: 230 230 202
Width: 1211
VWidth: 0
Flags: HMW
LayerCount: 3
Fore
SplineSet
67 274 m 0
 67 667 356 885 577 885 c 0
 641 885 710 872 742 855 c 1
 757 836 l 1
 753 798 l 1
 809 838 901 890 964 890 c 0
 1075 890 1146 814 1146 692 c 0
 1146 456 865 372 707 396 c 1
 702 368 702 342 702 324 c 0
 702 175 770 102 884 102 c 0
 937 102 1049 152 1074 177 c 1
 1100 132 l 1
 1055 63 926 -30 790 -30 c 0
 672 -30 606 35 573 156 c 1
 502 48 384 -21 268 -21 c 0
 146 -21 67 91 67 274 c 0
228 320 m 0
 228 171 270 106 349 106 c 0
 425 106 496 150 528 208 c 13
 627 740 l 1
 599 766 534 781 488 781 c 0
 328 781 228 533 228 320 c 0
716 469 m 1
 852 453 996 498 996 663 c 0
 996 734 962 798 904 798 c 0
 812 798 752 692 716 469 c 1
EndSplineSet
Colour: ffffff
EndChar

StartChar: AE
Encoding: 198 198 203
Width: 1959
VWidth: 0
Flags: HMW
LayerCount: 3
Fore
SplineSet
64 1 m 1
 85 76 l 1
 230 131 l 1
 1020 1126 l 1
 813 1168 l 1
 835 1244 l 1
 1897 1244 l 1
 1815 927 l 1
 1731 940 l 1
 1722 1152 l 1
 1284 1152 l 1
 1209 679 l 1
 1468 679 l 1
 1530 802 l 1
 1626 810 l 1
 1531 424 l 1
 1444 409 l 1
 1438 586 l 1
 1195 586 l 1
 1117 96 l 1
 1581 96 l 1
 1719 329 l 1
 1796 313 l 1
 1717 0 l 1
 746 0 l 1
 766 74 l 1
 940 121 l 1
 996 472 l 1
 637 472 l 1
 364 126 l 1
 545 83 l 1
 519 1 l 1
 64 1 l 1
704 568 m 1
 1011 568 l 1
 1088 1058 l 1
 704 568 l 1
EndSplineSet
Colour: ffffff
EndChar

StartChar: divide
Encoding: 247 247 204
Width: 959
VWidth: 0
Flags: HMW
LayerCount: 3
Fore
SplineSet
68 454 m 1
 80 560 l 1
 892 560 l 1
 881 454 l 1
 68 454 l 1
354 228 m 0
 354 292 409 341 473 341 c 0
 539 341 594 291 594 227 c 0
 594 160 539 104 473 104 c 0
 407 104 354 161 354 228 c 0
354 790 m 0
 354 854 409 903 473 903 c 4
 539 903 594 853 594 789 c 0
 594 722 539 666 473 666 c 0
 407 666 354 723 354 790 c 0
EndSplineSet
Colour: ffffff
EndChar

StartChar: multiply
Encoding: 215 215 205
Width: 610
VWidth: 0
Flags: HMW
LayerCount: 3
Fore
SplineSet
71 310 m 1
 227 462 l 1
 71 619 l 1
 155 685 l 1
 308 532 l 1
 473 692 l 1
 538 608 l 1
 382 458 l 1
 541 297 l 1
 458 231 l 1
 302 388 l 1
 138 228 l 1
 71 310 l 1
EndSplineSet
Colour: ffffff
EndChar

StartChar: Oslash
Encoding: 216 216 206
Width: 1384
VWidth: 0
Flags: HMW
LayerCount: 3
Fore
SplineSet
74 505 m 0
 66 943 378 1273 832 1273 c 0
 1144 1273 1312 1029 1317 737 c 0
 1324 339 1029 -26 558 -26 c 0
 257 -26 79 204 74 505 c 0
141 -91 m 1
 297 153 l 1
 340 177 l 1
 967 1159 l 1
 963 1198 l 1
 1043 1324 l 1
 1210 1332 l 1
 1095 1154 l 1
 1039 1110 l 1
 392 100 l 1
 402 72 l 1
 303 -82 l 1
 141 -91 l 1
303 527 m 0
 308 294 396 79 624 79 c 0
 1035 79 1096 487 1093 713 c 0
 1088 946 997 1176 767 1176 c 0
 351 1176 298 773 303 527 c 0
EndSplineSet
Colour: ffffff
EndChar

StartChar: oslash
Encoding: 248 248 207
Width: 1003
VWidth: 0
Flags: HMW
LayerCount: 3
Fore
SplineSet
62 -46 m 1
 218 141 l 1
 262 157 l 1
 688 727 l 1
 686 765 l 1
 787 897 l 1
 942 904 l 1
 791 705 l 1
 732 670 l 1
 308 109 l 1
 317 78 l 1
 225 -41 l 1
 62 -46 l 1
146 327 m 0
 146 608 339 893 610 893 c 3
 793 893 863 715 863 537 c 0
 863 261 684 -26 425 -26 c 3
 242 -26 146 129 146 327 c 0
327 320 m 0
 327 185 369 48 458 48 c 3
 605 48 687 304 687 552 c 0
 687 654 655 816 567 816 c 3
 402 816 327 569 327 320 c 0
EndSplineSet
Colour: ffffff
EndChar

StartChar: Euro
Encoding: 8364 8364 208
Width: 1250
VWidth: 0
Flags: HMW
LayerCount: 3
Fore
SplineSet
69 468 m 1
 79 567 l 1
 932 567 l 1
 911 468 l 1
 69 468 l 1
79 651 m 1
 89 750 l 1
 981 750 l 1
 960 651 l 1
 79 651 l 1
225 636 m 0
 225 917 430 1269 833 1269 c 0
 965 1269 1066 1242 1162 1169 c 1
 1131 837 l 1
 1043 850 l 1
 1001 1070 l 1
 955 1129 905 1174 776 1174 c 0
 550 1174 437 965 437 666 c 3
 437 343 580 83 833 83 c 0
 895 83 970 108 1017 174 c 1
 1060 401 l 1
 1148 414 l 1
 1179 111 l 1
 1053 12 947 -24 783 -24 c 0
 445 -24 225 234 225 636 c 0
EndSplineSet
Colour: ffffff
EndChar

StartChar: Germandbls
Encoding: 7838 7838 209
Width: 1434
VWidth: 0
Flags: HMW
LayerCount: 3
Fore
SplineSet
64 0 m 1
 84 73 l 1
 255 119 l 1
 355 751 l 2
 411 1102 629 1250 925 1250 c 0
 1110 1250 1398 1208 1370 1032 c 0
 1358 956 1311 923 1229 897 c 1
 1209 1001 1190 1112 1076 1112 c 0
 992 1112 892 1028 876 928 c 0
 830 637 1378 680 1320 316 c 0
 1284 90 1084 -24 860 -24 c 0
 718 -24 592 30 551 121 c 1
 605 376 l 1
 697 361 l 1
 704 184 l 1
 731 127 807 76 899 76 c 0
 1003 76 1106 110 1128 250 c 0
 1168 503 633 468 690 829 c 0
 716 992 837 1123 982 1155 c 1
 984 1158 l 1
 965 1160 917 1161 898 1161 c 0
 703 1161 588 1027 548 774 c 2
 427 0 l 1
 64 0 l 1
EndSplineSet
Colour: ffffff
EndChar

StartChar: Germandbls.alt
Encoding: 65536 -1 210
Width: 1427
VWidth: 0
Flags: HMW
LayerCount: 3
Fore
SplineSet
63 0 m 1
 83 73 l 1
 255 119 l 1
 343 678 l 2
 412 1115 628 1250 924 1250 c 0
 1087 1250 1309 1232 1364 1213 c 1
 1354 1142 l 1
 992 751 l 1
 1064 693 1327 587 1327 361 c 0
 1327 100 1088 -24 859 -24 c 0
 717 -24 592 38 551 129 c 1
 606 392 l 1
 705 377 l 1
 714 192 l 1
 741 135 806 76 898 76 c 0
 1000 76 1131 124 1131 279 c 0
 1131 432 889 549 748 639 c 1
 733 687 l 1
 1122 1125 l 1
 1123 1130 l 1
 1084 1148 916 1161 897 1161 c 0
 702 1161 591 1053 535 700 c 1
 426 0 l 1
 63 0 l 1
EndSplineSet
Colour: ffffff
EndChar

StartChar: circumflex
Encoding: 710 710 211
Width: 600
VWidth: 0
Flags: HMW
LayerCount: 3
Fore
SplineSet
99 1387 m 1
 267 1566 l 1
 322 1581 l 1
 500 1395 l 1
 451 1358 l 1
 288 1468 l 1
 277 1468 l 1
 138 1357 l 1
 99 1387 l 1
EndSplineSet
Colour: ffffff
EndChar

StartChar: dagger
Encoding: 8224 8224 212
Width: 858
VWidth: 0
Flags: HMW
LayerCount: 3
Fore
SplineSet
67 712 m 1
 75 827 l 1
 372 819 l 1
 364 1255 l 1
 497 1244 l 1
 488 819 l 1
 794 827 l 1
 786 705 l 1
 488 716 l 1
 503 -363 l 1
 358 -351 l 1
 372 718 l 1
 67 712 l 1
EndSplineSet
Colour: ffffff
EndChar

StartChar: daggerdbl
Encoding: 8225 8225 213
Width: 865
VWidth: 0
Flags: HMW
LayerCount: 3
Fore
SplineSet
70 712 m 1
 77 827 l 1
 372 819 l 1
 365 1255 l 1
 498 1244 l 1
 488 819 l 1
 792 827 l 1
 786 705 l 1
 488 716 l 1
 479 429 l 1
 482 174 l 1
 795 181 l 1
 789 64 l 1
 482 73 l 1
 491 -363 l 1
 358 -352 l 1
 368 73 l 1
 80 64 l 1
 88 187 l 1
 368 175 l 1
 375 498 l 1
 372 718 l 1
 70 712 l 1
EndSplineSet
Colour: ffffff
EndChar

StartChar: eight.osf
Encoding: 65537 -1 214
Width: 897
VWidth: 0
Flags: HMW
LayerCount: 3
Fore
SplineSet
64 216 m 0
 64 372 186 504 344 589 c 1
 346 598 l 1
 287 637 217 739 217 853 c 0
 217 1051 395 1201 577 1201 c 0
 731 1201 833 1115 833 988 c 0
 833 838 753 726 616 635 c 1
 615 626 l 1
 730 546 785 450 785 346 c 0
 785 126 606 -27 367 -27 c 0
 204 -27 64 63 64 216 c 0
235 271 m 0
 235 142 314 66 406 66 c 0
 516 66 618 121 618 269 c 0
 618 367 519 462 398 545 c 1
 314 504 235 398 235 271 c 0
381 949 m 0
 381 852 439 747 553 676 c 1
 601 721 679 800 679 944 c 0
 679 1034 637 1124 548 1124 c 0
 457 1124 381 1052 381 949 c 0
EndSplineSet
Colour: ffffff
EndChar

StartChar: emdash
Encoding: 8212 8212 215
Width: 1298
VWidth: 0
Flags: HMW
LayerCount: 3
Fore
SplineSet
81 409 m 1
 96 513 l 1
 1217 520 l 1
 1201 415 l 1
 81 409 l 1
EndSplineSet
Colour: ffffff
EndChar

StartChar: endash
Encoding: 8211 8211 216
Width: 788
VWidth: 0
Flags: HMW
LayerCount: 3
Fore
SplineSet
81 409 m 1
 96 513 l 1
 707 520 l 1
 691 415 l 1
 81 409 l 1
EndSplineSet
Colour: ffffff
EndChar

StartChar: five.osf
Encoding: 65538 -1 217
Width: 994
VWidth: 0
Flags: HMW
LayerCount: 3
Fore
SplineSet
62 -150 m 0
 62 -71 126 -26 184 -16 c 1
 207 -86 267 -206 376 -206 c 0
 513 -206 651 -124 651 101 c 0
 651 262 534 378 297 406 c 1
 481 914 l 1
 931 974 l 1
 880 801 l 1
 519 768 l 1
 453 550 l 1
 720 523 846 372 846 182 c 0
 846 -78 596 -297 309 -297 c 0
 130 -297 62 -207 62 -150 c 0
EndSplineSet
Colour: ffffff
EndChar

StartChar: four.osf
Encoding: 65539 -1 218
Width: 1069
VWidth: 0
Flags: HMW
LayerCount: 3
Fore
SplineSet
63 164 m 1
 820 986 l 1
 882 968 l 1
 857 849 816 613 787 432 c 2
 752 211 l 1
 1006 211 l 1
 970 86 l 1
 735 86 l 1
 676 -277 l 5
 498 -304 l 1
 560 89 l 1
 74 89 l 1
 63 164 l 1
248 211 m 1
 578 211 l 1
 652 676 l 1
 248 211 l 1
EndSplineSet
Colour: ffffff
EndChar

StartChar: guilsinglleft
Encoding: 8249 8249 219
Width: 455
VWidth: 0
Flags: HMW
LayerCount: 3
Fore
SplineSet
69 469 m 1
 338 820 l 1
 381 761 l 1
 217 461 l 1
 384 141 l 1
 332 77 l 1
 70 449 l 5
 69 469 l 1
EndSplineSet
Colour: ffffff
EndChar

StartChar: guilsinglright
Encoding: 8250 8250 220
Width: 456
VWidth: 0
Flags: HMW
LayerCount: 3
Fore
SplineSet
71 141 m 1
 238 461 l 1
 74 761 l 1
 118 820 l 1
 386 469 l 1
 384 449 l 1
 123 77 l 1
 71 141 l 1
EndSplineSet
Colour: ffffff
EndChar

StartChar: nine.osf
Encoding: 65540 -1 222
Width: 885
VWidth: 0
Flags: HMW
LayerCount: 3
Fore
SplineSet
67 -208 m 1
 379 -84 496 132 568 319 c 1
 556 319 l 1
 496 252 412 230 325 230 c 0
 162 230 83 339 83 501 c 0
 83 779 296 972 519 972 c 0
 735 972 812 806 812 624 c 0
 812 203 453 -169 78 -282 c 1
 67 -208 l 1
270 527 m 0
 270 413 316 338 415 338 c 0
 485 338 553 374 592 424 c 1
 617 500 629 574 629 659 c 0
 629 786 585 891 491 891 c 0
 373 891 270 755 270 527 c 0
EndSplineSet
Colour: ffffff
EndChar

StartChar: one.osf
Encoding: 65541 -1 223
Width: 692
VWidth: 0
Flags: HMW
LayerCount: 3
Fore
SplineSet
63 0 m 1
 84 74 l 1
 275 121 l 1
 383 802 l 1
 190 802 l 5
 212 882 l 5
 508 956 l 1
 576 956 l 1
 442 114 l 1
 626 80 l 1
 603 0 l 1
 63 0 l 1
EndSplineSet
Colour: ffffff
EndChar

StartChar: seven.osf
Encoding: 65542 -1 224
Width: 871
VWidth: 0
Flags: HMW
LayerCount: 3
Fore
SplineSet
64 -174 m 0
 64 -25 419 471 652 786 c 1
 234 786 l 1
 142 604 l 1
 76 617 l 1
 168 945 l 1
 806 945 l 1
 804 850 l 1
 482 420 284 30 218 -301 c 1
 142 -315 64 -247 64 -174 c 0
EndSplineSet
Colour: ffffff
EndChar

StartChar: six.osf
Encoding: 65543 -1 225
Width: 891
VWidth: 0
Flags: HMW
LayerCount: 3
Fore
SplineSet
69 341 m 0
 69 760 442 1119 798 1229 c 1
 824 1171 l 1
 544 1052 386 816 315 618 c 1
 325 618 l 1
 394 686 483 722 565 722 c 0
 719 722 802 593 802 442 c 0
 802 178 574 -21 357 -21 c 0
 146 -21 69 161 69 341 c 0
262 306 m 0
 262 182 298 61 387 61 c 0
 518 61 608 218 608 408 c 0
 608 509 576 615 469 615 c 0
 395 615 329 570 299 534 c 1
 281 460 262 393 262 306 c 0
EndSplineSet
Colour: ffffff
EndChar

StartChar: three.osf
Encoding: 65544 -1 226
Width: 933
VWidth: 0
Flags: HMW
LayerCount: 3
Fore
SplineSet
62 -151 m 0
 62 -92 123 -17 209 -9 c 1
 218 -96 260 -204 353 -204 c 0
 547 -204 616 -71 616 73 c 0
 616 186 514 309 349 313 c 1
 340 380 l 1
 480 422 671 540 671 702 c 0
 671 771 642 857 568 857 c 0
 460 857 396 788 345 698 c 1
 271 725 l 1
 307 830 469 991 647 991 c 0
 782 991 866 876 866 754 c 0
 866 567 680 453 578 412 c 1
 577 401 l 1
 709 386 813 269 813 131 c 0
 813 -96 565 -297 310 -297 c 0
 147 -297 62 -213 62 -151 c 0
EndSplineSet
Colour: ffffff
EndChar

StartChar: two.osf
Encoding: 65545 -1 227
Width: 905
VWidth: 0
Flags: HMW
LayerCount: 3
Fore
SplineSet
64 0 m 5
 73 102 l 5
 383 288 623 444 623 698 c 4
 623 796 575 867 497 867 c 4
 411 867 307 782 257 675 c 5
 187 704 l 5
 218 800 382 987 591 991 c 4
 593 991 595 991 597 991 c 4
 759 991 834 869 835 740 c 4
 836 474 524 297 284 147 c 5
 655 147 l 5
 758 301 l 5
 827 292 l 5
 727 0 l 5
 64 0 l 5
EndSplineSet
Colour: ffffff
EndChar

StartChar: f.i
Encoding: 61441 61441 228
Width: 1115
VWidth: 0
Flags: HMW
LayerCount: 3
Fore
SplineSet
155 768 m 5
 169 836 l 5
 326 872 l 5
 372.297 1118 591.703 1306 794 1306 c 4
 920 1306 981 1259 981 1173 c 4
 981 1134 953 1084 889 1060 c 5
 855 1103 767 1178 693 1178 c 4
 595 1178 526 1128 496 956 c 6
 479 858 l 5
 542 866 779 886 882 886 c 4
 1014 886 1027 817 1009 693 c 6
 963 378 l 6
 949 281 940 216 940 172 c 4
 940 95 998 94 1067 96 c 5
 1059 15 l 5
 1030 0 974 -17 918 -17 c 4
 786 -17 758 47 780 194 c 6
 848 659 l 6
 860.842 732.979 801 754 710 758 c 6
 470 768 l 13
 405 135 l 22
 394 25 370.574 -37.7139 355 -60 c 5
 199 -60 l 5
 215.034 -30.7227 232 -5 242 99 c 6
 308 768 l 5
 155 768 l 5
EndSplineSet
Colour: ffffff
EndChar

StartChar: f.l
Encoding: 61442 61442 229
Width: 1161
VWidth: 0
Flags: HMW
LayerCount: 3
Fore
SplineSet
155 768 m 5
 169 836 l 5
 326 872 l 5
 373 1118 617 1306 774 1306 c 4
 976 1306 1086 1212 1098 1172 c 13
 958 378 l 6
 941 283 935 216 935 172 c 4
 935 95 993 94 1062 96 c 5
 1054 15 l 5
 1025 0 969 -17 913 -17 c 7
 781 -17 752 48 775 194 c 6
 924 1132 l 21
 896 1156 794 1178 733 1178 c 4
 625 1178 526 1130 496 956 c 6
 479 858 l 5
 770 858 l 5
 746 768 l 5
 470 768 l 13
 405 135 l 22
 394 25 370.574 -37.7139 355 -60 c 5
 199 -60 l 5
 215.034 -30.7227 232 -5 242 99 c 6
 308 768 l 5
 155 768 l 5
EndSplineSet
Colour: ffffff
EndChar

StartChar: zero.osf
Encoding: 65546 -1 230
Width: 939
VWidth: 0
Flags: HMW
LayerCount: 3
Fore
SplineSet
70 348 m 0
 70 674 292 985 546 985 c 1
 549 985 l 0
 757 982 866 838 866 619 c 4
 866 234 603 -23 388 -23 c 0
 213 -23 70 95 70 348 c 0
261 321 m 0
 261 138 327 71 404 71 c 0
 533 71 677 293 677 645 c 0
 677 825 612 900 535 900 c 0
 404 900 261 673 261 321 c 0
EndSplineSet
Colour: ffffff
EndChar

StartChar: euro.osf
Encoding: 65549 -1 233
Width: 1201
VWidth: 0
Flags: HMW
LayerCount: 3
Fore
SplineSet
80 312 m 1
 106 411 l 1
 711 411 l 1
 674 312 l 1
 80 312 l 1
108 487 m 1
 133 586 l 1
 778 586 l 1
 741 487 l 1
 108 487 l 1
228 432 m 0
 272 709 500 947 808 947 c 0
 965 947 1035 880 1035 880 c 1
 970 602 l 1
 874 615 l 1
 878 775 l 1
 864 816 824 852 723 852 c 0
 578 852 490 744 445 463 c 0
 407 222 530 103 671 103 c 0
 816 103 896 161 937 197 c 1
 968 120 l 1
 937 75 810 -24 602 -24 c 0
 340 -24 180 130 228 432 c 0
EndSplineSet
Colour: ffffff
EndChar

StartChar: dollar.osf
Encoding: 65550 -1 234
Width: 899
VWidth: 0
Flags: HMW
LayerCount: 3
Fore
SplineSet
92 141 m 0
 103 208 161 265 245 271 c 1
 266 130 325 64 401 64 c 0
 471 64 537 91 549 165 c 0
 574 324 150 354 193 624 c 0
 211 740 333 900 535 900 c 0
 666 900 771 845 753 734 c 0
 740 651 678 595 590 589 c 1
 590 632 l 2
 585 780 529 816 470 816 c 0
 400 816 349 760 339 696 c 0
 309 509 745 487 703 220 c 0
 680 72 509 -34 355 -34 c 0
 177 -34 78 51 92 141 c 0
287 -197 m 1
 333 -15 l 1
 440 -6 l 1
 429 -179 l 1
 287 -197 l 1
482 889 m 1
 490 1041 l 1
 625 1058 l 1
 582 889 l 1
 482 889 l 1
EndSplineSet
Colour: ffffff
EndChar

StartChar: percent.osf
Encoding: 65551 -1 235
Width: 1221
VWidth: 0
Flags: HMW
LayerCount: 3
Fore
SplineSet
65 -9 m 1
 524 440 l 1
 984 932 l 1
 1156 929 l 1
 1151 904 l 1
 687 443 l 1
 257 -27 l 1
 65 -9 l 1
93 683 m 0
 116 826 267 934 378 934 c 0
 394 934 398 933 403 931 c 1
 402 862 l 17
 390 868 379 873 362 873 c 0
 291 873 257 775 242 683 c 0
 227 590 238 499 305 499 c 0
 381 499 413 587 428 683 c 0
 447 804 442 870 432 922 c 9
 984 932 l 25
 979 844 l 25
 537 859 l 17
 576 818 583 723 577 683 c 0
 554 537 399 431 294 431 c 0
 180 431 67 521 93 683 c 0
645 220 m 0
 668 363 817 470 928 470 c 0
 1055 470 1149 369 1125 217 c 0
 1102 74 955 -30 850 -30 c 0
 736 -30 619 58 645 220 c 0
794 220 m 0
 779 127 794 39 861 39 c 0
 937 39 967 126 982 222 c 0
 997 318 988 411 919 411 c 0
 843 411 809 312 794 220 c 0
EndSplineSet
Colour: ffffff
EndChar

StartChar: sterling.osf
Encoding: 65552 -1 236
Width: 1323
VWidth: 0
Flags: MW
LayerCount: 3
Fore
SplineSet
130 0 m 1
 148 74 l 1
 322 113 l 1
 362 174 384 253 397 334 c 2
 408 406 l 1
 229 396 l 1
 255 488 l 1
 427 498 l 1
 447 611 l 2
 488 834 637 949 852 948 c 0
 1041 947 1122 880 1105 771 c 0
 1093 693 1003 652 936 647 c 1
 938 796 909 863 821 863 c 0
 686 863 660 791 623 560 c 2
 614 506 l 1
 853 520 l 1
 829 429 l 1
 597 412 l 1
 593 388 l 2
 572 258 538 153 484 98 c 1
 857 98 l 1
 1001 334 l 1
 1080 313 l 1
 1005 0 l 1
 130 0 l 1
EndSplineSet
Colour: ffffff
EndChar

StartChar: yen.osf
Encoding: 65553 -1 237
Width: 1210
VWidth: 0
Flags: HMW
LayerCount: 3
Fore
SplineSet
122 295 m 1
 150 393 l 1
 417 393 l 1
 278 813 l 1
 148 854 l 1
 173 930 l 1
 613 930 l 1
 590 854 l 1
 471 816 l 1
 575 420 l 1
 821 813 l 1
 690 854 l 1
 712 930 l 1
 1088 930 l 1
 1066 854 l 1
 937 816 l 1
 658 393 l 1
 959 393 l 1
 933 295 l 1
 616 295 l 1
 587 113 l 1
 745 78 l 1
 723 0 l 1
 223 0 l 1
 244 71 l 1
 401 119 l 1
 429 295 l 1
 122 295 l 1
154 498 m 1
 182 596 l 1
 465 596 l 9
 489 498 l 17
 154 498 l 1
656 498 m 9
 714 596 l 17
 991 596 l 1
 965 498 l 1
 656 498 l 9
EndSplineSet
Colour: ffffff
EndChar

StartChar: numbersign.osf
Encoding: 65554 -1 238
Width: 1049
VWidth: 0
Flags: HMW
LayerCount: 3
Fore
SplineSet
68 243 m 1
 121 368 l 9
 867 368 l 17
 816 243 l 1
 68 243 l 1
172 561 m 17
 226 686 l 9
 975 686 l 17
 924 561 l 9
 172 561 l 17
184 -26 m 9
 484 941 l 17
 597 951 l 9
 297 -19 l 17
 184 -26 l 9
459 -26 m 9
 758 941 l 17
 870 950 l 9
 570 -19 l 17
 459 -26 l 9
EndSplineSet
Colour: ffffff
EndChar

StartChar: OE
Encoding: 338 338 239
Width: 1748
VWidth: 0
Flags: HMW
LayerCount: 3
Fore
SplineSet
182.04 619 m 0
 243.81 1009 487.465 1272 881.465 1272 c 0
 951.465 1272 1012.04 1263 1062.03 1244 c 1
 1839.03 1244 l 1
 1756.35 924 l 1
 1672.41 937 l 1
 1666.46 1152 l 1
 1197.46 1152 l 1
 1122.07 676 l 1
 1410.07 676 l 1
 1471.07 796 l 1
 1567.29 810 l 1
 1473.68 421 l 1
 1384.62 408 l 1
 1379.34 583 l 1
 1107.34 583 l 1
 1030.21 96 l 1
 1522.21 96 l 1
 1656.63 326 l 1
 1737.57 313 l 1
 1659 0 l 1
 818 0 l 1
 749.466 -16 678.724 -27 605.724 -27 c 0
 267.724 -27 123.121 247 182.04 619 c 0
413.068 676 m 0
 371.729 415 405.513 79 665.513 79 c 0
 724.513 79 783.571 92 841.323 122 c 1
 1000.34 1126 l 1
 949.567 1159 887.26 1176 817.26 1176 c 0
 599.26 1176 465.969 1010 413.068 676 c 0
EndSplineSet
Colour: ffffff
EndChar

StartChar: oe
Encoding: 339 339 240
Width: 1447
VWidth: 0
Flags: HMW
LayerCount: 3
Fore
SplineSet
141.472 426 m 0
 189.621 730 404.546 900 627.546 900 c 0
 751.546 900 870.717 819 891.571 736 c 1
 966.717 819 1092.39 899 1230.39 899 c 0
 1375.39 899 1480.44 792 1447.02 581 c 0
 1442.11 550 1422.82 485 1409.43 451 c 1
 926.481 445 l 1
 900.506 281 967.729 93 1148.73 93 c 0
 1218.73 93 1270 101 1382.87 157 c 1
 1399.47 104 l 1
 1307.33 21 1179.25 -30 1047.25 -30 c 0
 916.248 -30 834.177 39 778.748 131 c 1
 671.851 18 577.565 -28 456.565 -28 c 0
 192.565 -28 100.767 169 141.472 426 c 0
331.717 497 m 0
 299.09 291 343.037 76 507.037 76 c 0
 615.037 76 711.527 218 733.86 359 c 0
 765.22 557 741.866 801 570.866 801 c 0
 419.866 801 356.583 654 331.717 497 c 0
940.469 527 m 5
 1257.95 549 l 1
 1264.49 565 1272.87 599 1275.41 615 c 0
 1294.25 734 1261.87 801 1165.87 801 c 0
 1085.87 801 981.195 721 940.469 527 c 5
EndSplineSet
Colour: ffffff
EndChar

StartChar: trademark
Encoding: 8482 8482 241
Width: 1636
VWidth: 0
Flags: HMW
LayerCount: 3
Fore
SplineSet
150 1079.1 m 1
 172.517 1244 l 1
 712.467 1244 l 1
 669.909 1071.9 l 1
 608.229 1078.65 l 1
 607.592 1182.6 l 1
 485.342 1182.6 l 1
 417.696 755.5 l 1
 498.523 740.2 l 1
 483.354 684.2 l 1
 210.803 684.2 l 1
 222.395 737.5 l 1
 301.796 758.65 l 1
 368.942 1182.6 l 1
 251.193 1182.6 l 1
 210.023 1073.25 l 1
 150 1079.1 l 1
621.104 684.2 m 1
 634.496 737.5 l 1
 712.996 758.65 l 1
 811.139 1170.9 l 1
 731.783 1189.8 l 1
 744.867 1244 l 1
 984.317 1244 l 1
 1005.59 1156.7 l 1
 1055.91 852.8 l 1
 1214.9 1171.55 l 1
 1258.32 1244 l 1
 1486.07 1244 l 1
 1472.99 1189.8 l 1
 1394.68 1172.7 l 1
 1352 755.5 l 1
 1431.48 740.2 l 1
 1418.11 684.2 l 1
 1146.91 684.2 l 1
 1160.3 737.5 l 1
 1238.35 758.65 l 1
 1272.91 1136 l 1
 1064.63 707.7 l 1
 966.667 699.15 l 1
 877.875 1119.35 l 1
 791.896 755.5 l 1
 871.823 740.2 l 1
 857.104 684.2 l 1
 621.104 684.2 l 1
EndSplineSet
Colour: ffffff
EndChar

StartChar: quotedblbase
Encoding: 8222 8222 242
Width: 789
VWidth: 0
Flags: HMW
LayerCount: 3
Fore
SplineSet
74 -254 m 1
 205 -220 256 -144 256 -80 c 0
 256 -24 210 27 140 27 c 0
 130 27 120 25 110 24 c 1
 102 45 96 64 96 87 c 0
 96 167 168 208 218 208 c 0
 288 208 392 151 392 0 c 0
 392 -93 360 -253 97 -323 c 1
 74 -254 l 1
392 -254 m 1
 523 -220 573 -144 573 -80 c 0
 573 -24 528 27 458 27 c 0
 448 27 438 25 428 24 c 1
 420 45 413 64 413 87 c 0
 413 167 486 208 536 208 c 0
 606 208 711 151 711 0 c 0
 711 -93 678 -253 415 -323 c 1
 392 -254 l 1
EndSplineSet
Colour: ffffff
EndChar

StartChar: ellipsis
Encoding: 8230 8230 243
Width: 1341
VWidth: 0
Flags: HMW
LayerCount: 3
Fore
SplineSet
94 92 m 0
 94 156 149 205 213 205 c 0
 279 205 333 154 333 90 c 0
 333 23 279 -31 213 -31 c 0
 147 -31 94 25 94 92 c 0
539 92 m 0
 539 156 594 205 658 205 c 0
 724 205 779 154 779 90 c 0
 779 23 724 -31 658 -31 c 0
 592 -31 539 25 539 92 c 0
1011 92 m 0
 1011 156 1065 205 1129 205 c 0
 1195 205 1251 154 1251 90 c 0
 1251 23 1195 -31 1129 -31 c 0
 1063 -31 1011 25 1011 92 c 0
EndSplineSet
Colour: ffffff
EndChar

StartChar: fraction
Encoding: 8260 8260 244
Width: 1456
VWidth: 0
Flags: HMW
LayerCount: 3
Fore
SplineSet
150 -10 m 1
 652 588 l 1
 1141 1210 l 1
 1307 1207 l 1
 1300 1178 l 1
 806 591 l 1
 337 -32 l 1
 150 -10 l 1
EndSplineSet
Colour: ffffff
EndChar

StartChar: bullet
Encoding: 8226 8226 245
Width: 534
VWidth: 0
Flags: MW
LayerCount: 3
Fore
SplineSet
91 575 m 0
 91 668 173 741 266 741 c 0
 362 741 443 666 443 573 c 0
 443 474 362 395 266 395 c 0
 170 395 91 476 91 575 c 0
EndSplineSet
Colour: ffffff
EndChar

StartChar: lozenge
Encoding: 9674 9674 246
Width: 983
VWidth: 0
Flags: MW
LayerCount: 3
Fore
SplineSet
168 474 m 1
 492 799 l 1
 816 472 l 1
 494 135 l 1
 168 474 l 1
EndSplineSet
Colour: ffffff
EndChar

StartChar: Rcaron
Encoding: 344 344 248
Width: 1248
VWidth: 0
Flags: HMW
LayerCount: 3
Fore
SplineSet
70 0 m 1
 92.7207 74 l 1
 267.164 121 l 1
 422.223 1100 l 1
 255.975 1130 l 1
 278.17 1207 l 1
 428.812 1230 593.456 1253 741.456 1253 c 0
 1038.46 1253 1231.26 1176 1194.36 943 c 0
 1173.92 814 1051.48 666 852.872 599 c 1
 852.714 598 l 1
 993.276 349 l 2
 1084.62 187 1125.06 114 1243.2 77 c 2
 1274.61 67 l 1
 1248.84 -1 l 1
 1203.47 -16 1162.67 -21 1125.67 -21 c 0
 966.674 -21 875.521 98 813.071 253 c 2
 699.053 537 l 1
 525.053 537 l 1
 459.956 126 l 1
 641.146 83 l 1
 618 0 l 1
 70 0 l 1
539.466 628 m 1
 737.466 628 l 1
 841.692 661 955.996 745 978.487 887 c 0
 1004.46 1051 922.151 1169 745.151 1169 c 0
 675.151 1169 624.359 1164 624.359 1164 c 1
 539.466 628 l 1
635.854 1527 m 1
 725.673 1589 l 1
 852.865 1445 l 1
 862.865 1445 l 1
 1008.04 1585 l 1
 1047.29 1555 l 1
 845.938 1376 l 1
 788.562 1361 l 1
 635.854 1527 l 1
EndSplineSet
Colour: ffffff
EndChar

StartChar: rcaron
Encoding: 345 345 249
Width: 775
VWidth: 0
Flags: HMW
LayerCount: 3
Fore
SplineSet
60 0 m 1
 81.7207 74 l 1
 241.056 114 l 1
 338.304 728 l 1
 183.064 777 l 1
 209.102 853 l 1
 501.962 890 l 1
 517.161 866 l 1
 464.732 636 l 1
 483.732 636 l 1
 565.4 817 678.496 906 761.496 906 c 0
 835.496 906 872.943 852 863.599 793 c 0
 856.788 750 825.295 709 766.593 673 c 1
 737.344 703 700.354 722 664.354 722 c 0
 611.354 722 513.742 655 468.826 504 c 1
 408.164 121 l 1
 635.779 87 l 1
 612 0 l 1
 60 0 l 1
409.567 1159 m 1
 500.229 1220 l 1
 626.58 1077 l 1
 635.58 1077 l 1
 780.754 1217 l 1
 819.844 1186 l 1
 620.493 1007 l 1
 563.275 993 l 1
 409.567 1159 l 1
EndSplineSet
Colour: ffffff
EndChar

StartChar: Ecaron
Encoding: 282 282 250
Width: 1182
VWidth: 0
Flags: HMW
LayerCount: 3
Fore
SplineSet
77 0 m 1
 96.7207 74 l 1
 271.164 121 l 1
 430.341 1126 l 1
 254.993 1168 l 1
 278.03 1244 l 1
 1273.03 1244 l 1
 1191.35 924 l 1
 1106.41 937 l 1
 1099.46 1152 l 1
 628.459 1152 l 1
 553.068 676 l 1
 843.068 676 l 1
 904.074 796 l 1
 1001.29 810 l 1
 905.68 421 l 1
 818.621 408 l 1
 812.338 583 l 1
 538.338 583 l 1
 461.205 96 l 1
 956.205 96 l 1
 1090.63 326 l 1
 1171.57 313 l 1
 1092 0 l 1
 77 0 l 1
647.854 1527 m 1
 737.673 1589 l 1
 863.865 1445 l 1
 872.865 1445 l 1
 1019.04 1585 l 1
 1058.29 1555 l 1
 857.938 1376 l 1
 800.562 1361 l 1
 647.854 1527 l 1
EndSplineSet
Colour: ffffff
EndChar

StartChar: ecaron
Encoding: 283 283 251
Width: 842
VWidth: 0
Flags: HMW
LayerCount: 3
Fore
SplineSet
140.788 428 m 0
 188.304 728 432.388 899 626.388 899 c 0
 771.388 899 876.44 792 843.021 581 c 0
 838.111 550 819.816 485 806.432 451 c 1
 321.481 445 l 1
 304.614 288 359.155 102 546.155 102 c 2
 552.155 102 l 2
 619.155 102 673.312 103 781.866 157 c 1
 794.472 104 l 1
 702.326 21 576.248 -30 444.248 -30 c 0
 256.248 -30 92.6396 124 140.788 428 c 0
335.835 523 m 1
 653.479 546 l 1
 660.012 562 667.872 599 670.406 615 c 0
 689.254 734 657.866 801 561.866 801 c 0
 481.866 801 376.562 717 335.835 523 c 1
421.567 1159 m 1
 511.229 1220 l 1
 638.58 1077 l 1
 648.58 1077 l 1
 793.754 1217 l 1
 831.844 1186 l 1
 631.493 1007 l 1
 574.275 993 l 1
 421.567 1159 l 1
EndSplineSet
Colour: ffffff
EndChar

StartChar: Scaron
Encoding: 352 352 252
Width: 940
VWidth: 0
Flags: HMW
LayerCount: 3
Fore
SplineSet
105.323 122 m 1
 160.611 389 l 1
 260.395 375 l 1
 269.618 187 l 1
 296.59 130 365.195 77 458.195 77 c 0
 563.195 77 705.016 139 728.456 287 c 0
 769.637 547 196.161 544 255.08 916 c 0
 291.033 1143 502.99 1269 699.99 1269 c 0
 807.99 1269 897.604 1235 966.151 1169 c 1
 964.885 1161 899.487 887 899.487 887 c 1
 802.388 899 l 1
 807.639 1090 l 1
 795.341 1126 732.686 1185 652.686 1185 c 0
 552.686 1185 461.341 1126 440.593 995 c 0
 395.136 708 982.621 730 923.068 354 c 0
 886.64 124 646.199 -24 418.199 -24 c 0
 274.199 -24 156.811 43 105.323 122 c 1
516.694 1526 m 1
 606.356 1587 l 1
 732.549 1443 l 1
 742.549 1443 l 1
 888.881 1584 l 1
 926.971 1553 l 1
 726.462 1373 l 1
 669.402 1360 l 1
 516.694 1526 l 1
EndSplineSet
Colour: ffffff
EndChar

StartChar: scaron
Encoding: 353 353 253
Width: 737
VWidth: 0
Flags: HMW
LayerCount: 3
Fore
SplineSet
92.332 141 m 0
 102.944 208 160.972 265 244.922 271 c 1
 265.59 130 325.137 64 401.137 64 c 0
 471.137 64 537.413 91 549.134 165 c 0
 574.316 324 150.068 354 192.832 624 c 0
 211.204 740 332.546 900 534.546 900 c 0
 665.546 900 770.835 845 753.254 734 c 0
 740.108 651 678.238 595 590.288 589 c 1
 590.099 632 l 2
 585.54 780 529.242 816 470.242 816 c 0
 400.242 816 349.372 760 339.235 696 c 0
 309.617 509 745.133 487 702.845 220 c 0
 679.403 72 508.615 -34 354.615 -34 c 0
 176.615 -34 78.0771 51 92.332 141 c 0
341.567 1159 m 1
 432.229 1220 l 1
 558.58 1077 l 1
 567.58 1077 l 1
 712.754 1217 l 1
 751.844 1186 l 1
 551.493 1007 l 1
 494.275 993 l 1
 341.567 1159 l 1
EndSplineSet
Colour: ffffff
EndChar

StartChar: Zcaron
Encoding: 381 381 254
Width: 1136
VWidth: 0
Flags: HMW
LayerCount: 3
Fore
SplineSet
75 0 m 1
 83.4717 104 l 1
 993.983 1149 l 1
 456.983 1149 l 1
 341.021 903 l 1
 253.872 921 l 1
 315.03 1244 l 1
 1243.03 1244 l 1
 1230.99 1168 l 1
 297.839 100 l 1
 867.839 100 l 1
 1030.59 351 l 1
 1121.06 335 l 1
 1011 0 l 1
 75 0 l 1
602.854 1527 m 1
 694.673 1589 l 1
 819.865 1445 l 1
 829.865 1445 l 1
 975.039 1585 l 1
 1014.29 1555 l 1
 812.938 1376 l 1
 755.562 1361 l 1
 602.854 1527 l 1
EndSplineSet
Colour: ffffff
EndChar

StartChar: zcaron
Encoding: 382 382 255
Width: 858
VWidth: 0
Flags: HMW
LayerCount: 3
Fore
SplineSet
77 0 m 1
 86.7793 87 l 1
 686.54 780 l 1
 349.54 780 l 1
 261.238 595 l 1
 186.298 608 l 1
 236.27 873 l 1
 908.27 873 l 1
 896.549 799 l 1
 283.68 99 l 1
 643.68 99 l 1
 766.556 275 l 1
 832.289 267 l 1
 748 0 l 1
 77 0 l 1
403.567 1159 m 1
 495.229 1220 l 1
 620.58 1077 l 1
 630.58 1077 l 1
 775.754 1217 l 1
 814.844 1186 l 1
 615.493 1007 l 1
 557.275 993 l 1
 403.567 1159 l 1
EndSplineSet
Colour: ffffff
EndChar

StartChar: Ccaron
Encoding: 268 268 256
Width: 1193
VWidth: 0
Flags: HMW
LayerCount: 3
Fore
SplineSet
174.288 589 m 0
 221.012 884 466.99 1269 924.99 1269 c 0
 1056.99 1269 1186.71 1242 1271.15 1169 c 1
 1187.57 837 l 1
 1101.63 850 l 1
 1094.47 1070 l 1
 1057.82 1129 981.943 1174 852.943 1174 c 0
 644.943 1174 450.217 980 399.217 658 c 0
 342.357 299 528.581 111 765.581 111 c 0
 899.581 111 1040.83 182 1139.34 261 c 1
 1162.3 185 l 1
 1068.1 89 875.199 -24 667.199 -24 c 0
 360.199 -24 111.093 190 174.288 589 c 0
733.854 1527 m 1
 823.673 1589 l 1
 949.865 1445 l 1
 960.865 1445 l 1
 1106.04 1585 l 1
 1145.29 1555 l 1
 943.938 1376 l 1
 886.562 1361 l 1
 733.854 1527 l 1
EndSplineSet
Colour: ffffff
EndChar

StartChar: ccaron
Encoding: 269 269 257
Width: 818
VWidth: 0
Flags: HMW
LayerCount: 3
Fore
SplineSet
135.729 415 m 0
 182.77 712 420.546 900 637.546 900 c 0
 804.546 900 866.825 826 854.312 747 c 0
 844.969 688 794.633 648 710.683 642 c 1
 693.295 709 662.658 806 575.658 806 c 0
 456.658 806 359.969 688 331.301 507 c 0
 304.851 340 354.255 90 562.255 90 c 0
 661.255 90 722.164 121 773.916 151 c 1
 789.729 93 l 1
 726.593 29 589.248 -30 460.248 -30 c 0
 220.248 -30 97.7168 175 135.729 415 c 0
427.943 1174 m 1
 517.922 1237 l 1
 644.114 1093 l 1
 654.114 1093 l 1
 800.446 1234 l 1
 838.536 1203 l 1
 639.186 1024 l 1
 581.969 1010 l 1
 427.943 1174 l 1
EndSplineSet
Colour: ffffff
EndChar

